<svg width="1328" height="288" viewBox="0 0 1328 288" fill="none" xmlns="http://www.w3.org/2000/svg">
<path d="M195.651 1.81618C164.572 5.36212 135.83 18.9405 113.235 40.5621C101.721 51.5459 91.8519 64.4324 85.3591 77.0594C82.5888 82.1621 79.9917 86.6594 79.5588 87.0054C79.0394 87.2648 76.2691 86.4 73.3257 84.9297C66.0537 81.3838 59.9938 80.1729 50.2112 80.1729C34.9747 80.0865 24.9325 83.9783 15.0634 93.8378C5.19428 103.611 0.865723 114.768 0.865723 130.681C0.865723 140.627 3.03 149.968 7.09884 157.578C10.4751 163.978 18.0068 171.762 23.6339 174.703C27.5296 176.778 27.7028 177.038 27.0968 179.459C26.6639 180.843 26.4042 186.292 26.4042 191.568C26.4042 200.735 26.4908 201.341 29.5207 207.568C31.2522 211.114 34.2822 215.87 36.3599 218.205C59.9938 244.757 121.546 252.627 193.053 238.184C200.845 236.627 207.511 235.589 207.771 235.762C208.03 236.022 208.377 242.335 208.636 249.773L209.069 263.351L211.32 263.611C213.311 263.87 216.341 261.016 234.002 242.335C245.169 230.486 254.779 220.022 255.298 218.984C255.817 218.032 255.991 216.562 255.731 215.87C255.125 214.227 255.731 214.4 221.276 206.097C192.967 199.265 191.322 199.092 190.629 202.724C190.456 203.503 193.14 207.914 196.516 212.497C199.979 216.995 202.403 221.059 201.97 221.405C201.105 222.27 181.886 226.076 169.679 227.805C143.362 231.611 111.763 231.87 92.3713 228.411C58.522 222.443 40.169 209.124 40.2556 190.703C40.3421 181.449 40.169 181.622 49.5187 181.622C56.4443 181.622 63.976 180.497 70.642 178.595C72.2868 178.076 72.7197 178.941 75.6631 188.195C79.2991 199.611 88.4756 218.292 91.2459 220.108C93.843 221.751 109.599 223.135 125.874 223.135C140.938 223.135 158.165 221.838 159.724 220.541C160.676 219.762 172.45 217.6 182.405 216.389L187.859 215.784L184.656 211.286C182.578 208.259 181.453 205.665 181.453 203.676L181.366 200.649L177.038 201.168C174.7 201.514 168.814 202.378 164.052 203.243C159.291 204.108 155.049 204.454 154.702 204.108C154.27 203.762 152.798 197.708 151.413 190.703C149.162 179.459 148.989 177.73 150.028 176.605C151.153 175.568 152.019 175.654 156.78 177.557C171.757 183.524 186.474 183.005 202.836 176C204.221 175.395 204.308 176.173 204.308 184.908V194.422L210.195 195.805C213.398 196.584 216.687 197.449 217.553 197.708C218.852 198.141 219.025 197.362 219.025 189.578V180.93L241.36 180.497C257.982 180.238 264.648 179.805 267.678 178.768C273.478 176.951 274.603 177.989 273.478 184.13C272.959 186.638 272.785 188.886 272.959 189.059C273.132 189.232 277.287 187.503 282.135 185.081C288.368 182.054 292.004 180.757 294.601 180.757C301.787 180.67 308.799 175.741 311.05 169.081C312.868 163.892 315.378 163.978 317.716 169.168C318.668 171.503 319.361 173.751 319.101 174.184C318.322 176.259 280.057 195.978 269.063 200.043C267.764 200.476 267.851 201.168 270.188 206.443C271.66 209.643 273.132 212.67 273.565 213.016C275.036 214.659 312.435 195.892 328.883 185.341C335.982 180.757 336.155 180.67 341.869 180.93L347.583 181.189L339.532 186.638C331.481 192 331.394 192.086 327.671 199.697C323.343 208.605 317.023 218.811 315.898 218.811C315.465 218.811 310.617 217.254 305.163 215.351L295.207 211.978L284.473 216.649C278.672 219.243 272.959 221.405 271.92 221.405C268.197 221.405 266.466 219.503 262.657 211.373C260.579 206.876 258.674 203.243 258.415 203.243C258.155 203.243 254.173 202.724 249.498 202.032C244.91 201.341 238.157 200.562 234.608 200.303C228.201 199.87 228.374 199.957 241.36 203.243C248.632 205.059 255.644 207.308 257.116 208.086C260.406 210.076 262.657 214.314 262.137 217.773C261.964 219.243 262.137 220.627 262.657 220.8C263.955 221.232 260.146 230.659 255.125 239.395C246.641 254.184 238.07 263.265 227.595 268.454C220.497 272 219.025 272.259 219.025 269.838C219.025 268.108 219.025 268.108 216.255 269.838C213.225 271.654 208.203 272.086 206.039 270.703C205.26 270.184 204.567 270.27 204.221 270.876C203.355 272.259 196.863 269.665 190.543 265.427C185.868 262.314 180.241 256.951 176.086 251.503L174.354 249.254L166.39 250.205L158.425 251.243L161.195 255.308C162.754 257.47 164.918 260.497 166.043 261.968C167.169 263.438 167.602 264.649 167.082 264.649C165.61 264.649 148.469 256.432 145.439 254.27C142.929 252.454 142.236 252.454 131.415 253.059L119.988 253.665L122.931 256.173C136.955 268.022 162.234 279.784 182.665 284.022C214.09 290.595 247.247 286.097 276.854 271.222C290.619 264.303 300.055 257.384 312.608 244.843C329.663 227.805 339.791 211.719 347.15 190.011L350.353 180.67L379.008 180.497L407.577 180.324L411.299 177.73C416.753 173.924 418.485 169.773 418.831 160.346C419.264 150.919 418.138 146.335 414.416 142.097C410.347 137.513 407.577 136.649 396.063 136.649C389.57 136.649 386.107 136.303 386.107 135.697C386.107 135.178 387.319 133.016 388.791 130.941C393.292 124.368 398.054 113.211 399.612 105.341C406.538 71.8702 375.545 47.2216 320.832 42.8108L313.041 42.1189L305.423 35.8054C273.391 9.16753 235.04 -2.68112 195.651 1.81618ZM204.308 45.8378V75.2432H199.806C190.803 75.2432 160.936 71.0919 159.464 69.6216C158.858 69.1027 161.109 63.1351 164.658 55.5243C169.506 45.3189 177.384 33.9027 183.877 27.9351C188.985 23.0919 200.239 16.4324 203.096 16.4324C204.135 16.4324 204.308 21.5351 204.308 45.8378ZM228.548 19.7189C234.694 22.7459 246.122 33.9892 251.489 42.2054C255.558 48.6054 261.358 60.1081 263.609 66.5081L264.734 69.881L256.856 71.3513C246.381 73.254 230.192 75.1567 224.046 75.2432H219.025V45.7513V16.2594L221.449 16.7783C222.747 17.1243 225.95 18.4216 228.548 19.7189ZM163.273 29.5783C157.126 37.881 150.893 48.8648 147.171 58.2054C145.18 63.0486 143.708 65.7297 142.842 65.7297C141.024 65.7297 118.429 58.1189 117.564 57.254C116.611 56.3027 126.394 47.1351 135.917 40.0432C142.842 34.854 164.225 23.3513 166.822 23.3513C167.515 23.3513 166.043 26.0324 163.273 29.5783ZM267.331 28.1081C272.612 30.6162 280.49 35.1135 284.646 37.9675C293.13 43.8486 306.721 55.9567 306.029 57.081C305.423 58.1189 281.443 65.9027 280.317 65.5567C279.798 65.3838 277.547 61.0594 275.296 55.9567C270.448 45.1459 265.6 36.7567 259.713 28.9729C257.376 25.8594 255.904 23.3513 256.51 23.3513C257.116 23.3513 261.964 25.5135 267.331 28.1081ZM338.06 59.6756C355.547 63.0486 369.918 69.3621 377.536 76.9729C383.596 83.027 385.501 87.2648 385.761 95.5675C386.02 101.881 385.934 102.054 385.328 97.7297C383.683 85.9675 377.104 81.2973 362.3 81.3838C354.249 81.3838 349.228 82.4216 346.111 84.7567C344.726 85.7946 343.341 86.4865 343.168 86.227C342.908 86.054 341.003 82.4216 338.839 78.1838C336.675 74.0324 333.125 67.8919 331.048 64.6919C328.97 61.4054 327.239 58.5513 327.239 58.3783C327.239 57.6865 328.364 57.8594 338.06 59.6756ZM128.645 78.7027C133.839 80.2594 138.254 81.6432 138.427 81.8162C138.86 82.2486 134.445 103.092 132.454 109.838C130.289 117.016 128.991 125.405 128.991 131.632V136.649H125.615H122.152L121.892 114.768L121.632 92.8L119.208 89.254C116.352 84.8432 111.59 82.3351 104.751 81.5567C101.894 81.2973 99.5567 80.8648 99.5567 80.6919C99.5567 80.5189 100.942 78.2702 102.587 75.6756L105.617 70.9189L112.369 73.427C116.092 74.8108 123.45 77.2324 128.645 78.7027ZM320.746 75.4162C322.391 77.9243 323.776 80.2594 323.776 80.6054C323.776 81.0378 319.188 81.2973 313.647 81.2973C298.843 81.3838 294.428 83.8919 290.446 94.4432C289.58 96.7783 288.801 98.5946 288.714 98.5946C288.368 98.5946 284.646 82.0756 284.992 81.8162C285.079 81.6432 289.926 80.1729 295.64 78.4432C301.354 76.8 308.539 74.3783 311.656 73.1675C314.772 72.0432 317.37 71.0054 317.456 71.0054C317.543 70.9189 319.014 72.9946 320.746 75.4162ZM61.4655 97.7297C67.006 99.2 72.46 103.351 75.3168 108.281C79.126 115.027 78.6931 115.978 71.4211 117.449C65.8806 118.573 65.3612 118.573 64.4955 117.189C60.8595 110.876 56.3578 108.108 49.7784 108.108C41.8138 108.108 34.8881 113.038 32.3776 120.476C30.2999 126.876 30.9925 138.551 33.8493 144.086C38.6107 153.341 49.6052 156.195 60.1669 150.919C65.3612 148.324 65.3612 148.324 65.6209 144.173L65.8806 140.108H58.0892H50.2112V134.054V128L64.7552 128.173L79.2125 128.432L79.4722 141.319C79.732 156.195 79.8185 156.022 71.5943 160.086C57.0503 167.438 39.7361 166.832 28.9147 158.616C17.2277 149.708 13.4185 127.913 20.9502 112.865C23.2011 108.368 29.0013 102.4 33.3299 100.065C40.6018 96.2594 52.2889 95.3081 61.4655 97.7297ZM191.062 98.7675C197.901 101.276 205 108.454 207.857 115.459C209.589 119.957 209.848 122.119 209.848 131.027C209.848 139.589 209.502 142.27 207.944 146.162C202.836 159.135 191.495 165.795 175.739 165.016C159.637 164.238 149.422 155.33 146.219 139.33C144.92 132.411 145.699 121.946 148.037 115.632C150.201 109.838 156.867 102.141 161.628 99.8054C170.199 95.7405 181.799 95.3081 191.062 98.7675ZM105.617 125.405V153.081H122.498H139.466L139.206 158.443L138.947 163.892L115.399 164.151L91.7653 164.324V131.027V97.7297H98.691H105.617V125.405ZM264.648 100.151C274.603 105.427 276.248 118.832 267.851 126.184L264.907 128.865L268.284 130.595C280.231 136.649 278.759 156.108 265.946 161.989C262.224 163.719 260.146 163.892 241.36 164.151L220.756 164.497V131.027V97.6432L240.927 97.9027C259.886 98.1621 261.185 98.2486 264.648 100.151ZM333.299 127.568C339.791 143.741 345.765 158.616 346.544 160.692L348.016 164.411L340.571 164.151L333.125 163.892L330.355 156.541L327.585 149.189H314.34H301.008L298.324 156.541L295.554 163.892L288.455 164.151C284.559 164.324 281.356 164.065 281.356 163.719C281.356 163.373 287.07 148.411 294.082 130.422L306.808 97.6432L314.166 97.9027L321.525 98.1621L333.299 127.568ZM368.793 125.405V153.081H385.674H402.555V158.703V164.324L379.008 164.151L355.374 163.892L355.115 131.892C355.028 114.335 355.115 99.3729 355.374 98.854C355.634 98.0756 357.885 97.7297 362.3 97.7297H368.793V125.405ZM134.618 185.6C134.964 188.281 136.176 194.335 137.302 199.092C138.427 203.935 139.293 207.914 139.12 208.086C138.947 208.259 135.397 209.384 131.069 210.595C126.827 211.805 119.641 214.141 115.053 215.697L106.742 218.551L103.972 214.314C99.297 207.222 94.6222 198.054 91.4191 189.665C89.6876 185.254 88.3025 181.362 88.3025 181.016C88.3025 180.67 98.6044 180.411 111.157 180.584L134.012 180.843L134.618 185.6ZM291.571 228.411C297.631 230.4 302.999 232.389 303.432 232.822C304.557 233.946 295.727 241.989 285.685 249.168C278.672 254.184 258.934 264.649 256.51 264.649C255.817 264.649 257.462 261.795 260.059 258.335C265.946 250.465 272.872 238.443 275.815 230.746C277.201 227.459 278.672 224.865 279.365 224.865C280.057 224.865 285.511 226.422 291.571 228.411Z" fill="#0B4A78"/>
<path d="M171.497 109.059C163.879 112.086 159.983 119.178 159.81 130.076C159.724 141.059 163.273 148.584 170.112 152.043C179.029 156.454 190.803 151.697 194.525 142.011C196.43 137.168 196.603 124.973 194.871 119.957C193.313 115.459 189.85 111.654 185.695 109.751C181.972 108.022 174.874 107.676 171.497 109.059ZM179.721 127.741C180.414 131.286 179.202 137.168 177.903 136.822C176.432 136.476 175.566 132.324 176.172 128.346C176.865 123.589 178.856 123.243 179.721 127.741Z" fill="#0B4A78"/>
<path d="M234.608 116.411V123.849L245.516 123.503C255.731 123.243 256.51 123.157 258.068 121.168C260.579 118.054 260.233 113.038 257.462 110.789C255.385 109.146 254 108.973 244.91 108.973H234.608V116.411Z" fill="#0B4A78"/>
<path d="M234.608 144V153.081H243.092C258.501 152.995 262.31 151.178 262.31 144.086C262.31 137.168 257.636 135.005 242.659 134.919H234.608V144Z" fill="#0B4A78"/>
<path d="M309.665 125.319C307.414 131.459 305.596 136.735 305.596 136.995C305.596 137.254 309.492 137.514 314.34 137.514C322.304 137.514 323.083 137.341 322.477 135.957C322.131 135.178 320.313 130.162 318.408 124.973C316.417 119.697 314.599 115.114 314.253 114.768C313.907 114.422 311.829 119.092 309.665 125.319Z" fill="#0B4A78"/>
<path d="M618.55 82.0757C614.395 83.9784 612.577 85.8811 610.759 90.2054C609.633 92.973 609.46 102.486 609.46 164.93C609.46 211.546 609.806 237.665 610.326 239.741C612.923 248.995 622.619 253.232 631.536 249.168C639.154 245.708 640.02 243.027 640.626 222.27L641.059 205.405L656.988 205.146C666.943 205.059 673.35 204.541 674.129 204.022C674.908 203.33 675.254 200.562 675.254 194.941C675.254 190.443 675.514 186.811 675.947 186.811C676.293 186.811 679.41 188.973 682.872 191.568C689.279 196.324 690.318 196.757 693.001 195.805C694.733 195.114 696.204 191.654 695.425 189.751C694.906 188.454 676.726 174.27 672.917 172.281C670.32 170.897 669.454 170.984 667.463 172.973C665.905 174.53 665.731 175.827 665.731 185.081V195.459H653.179H640.626L640.799 165.795L641.059 136.216H664.866H688.673L688.932 148.497C689.019 155.33 688.932 160.865 688.586 160.865C688.326 160.865 685.123 158.703 681.574 156.108C677.938 153.514 674.388 151.351 673.523 151.351C671.445 151.351 669.194 154.119 669.194 156.8C669.194 158.616 671.099 160.432 680.708 167.697C687.028 172.541 692.915 176.432 693.694 176.432C694.473 176.432 695.945 175.654 696.897 174.703C698.542 173.059 698.628 171.849 698.628 151.351C698.628 130.854 698.542 129.643 696.897 128C695.252 126.357 694.04 126.27 667.896 126.27C641.491 126.27 640.626 126.184 640.626 124.627C640.626 122.897 637.596 120.216 635.691 120.216C635.085 120.216 633.787 120.995 632.834 121.946C631.103 123.676 631.103 124.8 631.103 179.805C631.103 235.243 631.103 235.935 629.285 238.184C627.034 241.038 623.918 241.124 621.147 238.27L618.983 236.195V166.314C618.983 111.914 619.243 95.9135 620.108 94.2703C621.753 90.9838 625.389 90.1189 628.333 92.2811C630.237 93.6649 630.843 94.9622 631.363 99.1135C631.796 101.881 632.402 104.822 632.748 105.514C633.354 106.638 639.847 106.897 680.102 107.33C726.937 107.849 731.439 108.108 741.481 111.308C748.84 113.557 757.064 118.4 762.085 123.243C766.587 127.654 773.079 136.995 773.079 139.157C773.079 139.762 775.33 140.108 779.572 140.108H786.065L783.381 134.659C775.417 118.919 764.682 108.8 750.225 103.351C737.239 98.4216 736.46 98.4216 686.941 97.9892L640.972 97.5568L640.02 93.3189C638.635 87.6108 635.951 84.0649 631.622 82.0757C627.121 80 622.965 80 618.55 82.0757Z" fill="#0B4A78"/>
<path d="M502.112 128C499.948 130.162 499.861 132.497 501.939 134.314C503.411 135.611 507.912 135.784 548.687 135.784H593.877L595.176 133.708C596.734 131.373 595.782 127.741 593.445 126.789C592.665 126.53 572.148 126.27 547.908 126.27C504.969 126.27 503.757 126.357 502.112 128Z" fill="#0B4A78"/>
<path d="M1086.47 129.384C1074.78 131.114 1068.03 133.968 1066.47 137.773C1065.43 140.195 1065.52 140.541 1067.33 141.751C1068.46 142.53 1070.28 144 1071.49 145.124L1073.65 147.114L1073.31 163.978L1073.05 180.843L1070.19 183.178C1065.08 187.416 1067.25 190.53 1076.51 192C1083.26 193.124 1092.61 192.432 1096.16 190.616C1099.63 188.8 1099.97 186.551 1097.03 183.611C1094.52 181.189 1094.52 181.189 1093.91 166.4C1093.57 158.357 1093.57 147.114 1093.91 141.578C1094.69 128.865 1094.34 128.259 1086.47 129.384Z" fill="#0B4A78"/>
<path d="M717.674 163.459V195.459H737.585H757.497V192V188.541H741.481H725.465V160V131.459H721.57H717.674V163.459Z" fill="#0B4A78"/>
<path d="M846.665 142.703C846.665 148.843 846.319 153.946 845.886 153.946C845.453 153.946 844.674 153.341 844.068 152.562C839.133 146.768 827.1 147.286 820.607 153.6C816.105 158.011 814.201 163.632 814.201 173.059C814.201 179.546 814.547 181.016 816.798 185.427C822.598 196.67 836.19 200.303 843.981 192.692L846.665 190.097V192.778C846.665 195.373 846.838 195.459 850.128 195.459H853.591V163.459V131.459H850.128H846.665V142.703ZM839.739 156.108C844.154 158.443 846.145 162.854 846.492 171.676C846.838 178.422 846.578 180.065 845.02 183.092C842.509 188.022 839.133 190.27 834.112 190.27C830.563 190.27 829.61 189.838 826.753 186.984C822.685 183.005 821.213 177.989 821.732 170.378C822.252 163.459 824.416 158.616 827.965 156.454C831.169 154.465 836.276 154.378 839.739 156.108Z" fill="#0B4A78"/>
<path d="M1120.66 137.254C1119.71 137.514 1116.94 139.157 1114.52 140.973C1112.18 142.789 1108.2 145.211 1105.86 146.422C1101.01 148.843 1099.71 150.141 1099.45 152.649C1099.02 156.195 1099.37 156.541 1103.18 156.541H1106.81V169.341C1106.9 180.843 1107.07 182.4 1108.89 185.773C1113.39 194.508 1128.37 195.2 1137.11 187.157C1138.93 185.514 1139.36 184.389 1139.1 181.795C1138.84 178.768 1138.67 178.595 1136.25 178.854C1128.71 179.546 1128.54 179.546 1127.41 177.297C1126.64 175.827 1126.38 172.195 1126.46 166.054L1126.72 156.973L1132.78 156.541L1138.84 156.108V152.649V149.189L1132.61 148.497L1126.29 147.719V143.049C1126.29 139.416 1125.94 138.292 1124.64 137.514C1123.69 137.081 1122.83 136.735 1122.65 136.735C1122.48 136.822 1121.61 137.081 1120.66 137.254Z" fill="#0B4A78"/>
<path d="M927.176 148.151C915.143 151.265 912.719 153.946 917.22 159.308C919.211 161.73 919.385 162.508 919.385 171.589C919.385 180.843 919.298 181.449 917.22 183.351C914.45 186.032 914.45 188.973 917.307 190.789C920.077 192.605 936.006 192.951 939.036 191.308C942.239 189.578 942.932 187.416 941.46 183.87C939.902 180.324 939.642 165.103 941.027 162.508C942.239 160.259 944.923 160.432 946.568 162.768C948.819 165.968 948.472 179.373 946.048 183.87C942.759 190.097 945.529 192.173 957.476 192.259C966.306 192.346 970.981 190.703 971.847 187.243C972.279 185.6 971.933 184.476 970.548 183.005C968.817 181.189 968.557 179.892 968.47 172.108C968.297 163.805 968.384 163.2 970.375 161.643C972.799 159.654 973.145 159.654 975.223 161.211C977.56 162.941 978.253 178.768 976.175 183.697C974.097 188.8 974.357 190.011 978.08 191.222C982.322 192.778 996.173 192.692 999.03 191.135C1003.19 188.973 1003.53 186.897 1000.16 183.784L997.731 181.622L997.991 170.465C998.337 158.184 997.385 153.081 994.269 150.054C989.334 145.038 978.772 145.47 972.366 150.919L968.903 153.946L967.518 151.784C963.103 145.124 951.502 144.692 944.577 151.005C942.759 152.562 941.027 153.946 940.854 153.946C940.594 153.946 940.162 152.389 939.815 150.573C939.036 145.557 937.997 145.384 927.176 148.151Z" fill="#0B4A78"/>
<path d="M1152.26 148.151C1140.23 151.265 1137.8 153.946 1142.31 159.308C1144.3 161.73 1144.47 162.508 1144.47 171.589C1144.47 180.843 1144.38 181.449 1142.31 183.351C1139.53 186.032 1139.53 188.973 1142.39 190.789C1145.16 192.605 1161.09 192.951 1164.12 191.308C1167.32 189.578 1168.02 187.416 1166.54 183.87C1164.99 180.324 1164.73 165.103 1166.11 162.508C1167.32 160.259 1170.01 160.432 1171.65 162.768C1173.9 165.968 1173.56 179.373 1171.13 183.87C1167.84 190.097 1170.61 192.173 1182.56 192.259C1191.39 192.346 1196.07 190.703 1196.93 187.243C1197.36 185.6 1197.02 184.476 1195.63 183.005C1193.9 181.189 1193.64 179.892 1193.56 172.108C1193.38 163.805 1193.47 163.2 1195.46 161.643C1197.88 159.654 1198.23 159.654 1200.31 161.211C1202.65 162.941 1203.34 178.768 1201.26 183.697C1199.18 188.8 1199.44 190.011 1203.16 191.222C1207.41 192.778 1221.26 192.692 1224.11 191.135C1228.27 188.973 1228.62 186.897 1225.24 183.784L1222.82 181.622L1223.08 170.465C1223.42 158.184 1222.47 153.081 1219.35 150.054C1214.42 145.038 1203.86 145.47 1197.45 150.919L1193.99 153.946L1192.6 151.784C1188.19 145.124 1176.59 144.692 1169.66 151.005C1167.84 152.562 1166.11 153.946 1165.94 153.946C1165.68 153.946 1165.25 152.389 1164.9 150.573C1164.12 145.557 1163.08 145.384 1152.26 148.151Z" fill="#0B4A78"/>
<path d="M1248.7 147.027C1243.33 147.805 1235.72 151.005 1233.81 153.341C1230.09 157.838 1232.95 164.151 1238.31 163.114C1240.04 162.768 1242.29 161.124 1244.89 158.27C1247.06 155.849 1249.48 153.946 1250.26 153.946C1252.16 153.946 1254.07 156.886 1254.76 160.865C1255.54 165.362 1254.59 166.141 1247.84 166.314C1236.67 166.746 1229.31 172.368 1229.31 180.67C1229.31 188.714 1234.42 192.865 1244.29 192.865C1248.79 192.865 1250.43 192.432 1253.12 190.703L1256.32 188.454L1258.48 190.703C1260.39 192.605 1261.43 192.865 1266.53 192.865C1273.98 192.865 1278.05 190.53 1278.48 186.032C1278.74 183.697 1278.31 182.746 1276.32 181.103C1274.07 179.286 1273.89 178.768 1274.15 173.665C1274.41 165.881 1272.85 155.935 1270.86 152.649C1267.75 147.546 1259.61 145.557 1248.7 147.027ZM1254.76 175.654C1255.45 179.027 1254.5 183.092 1252.94 183.697C1252.25 183.957 1250.95 183.784 1250 183.351C1246.62 181.535 1246.8 174.357 1250.35 173.059C1253.03 172.022 1254.15 172.714 1254.76 175.654Z" fill="#0B4A78"/>
<path d="M1311.98 147.373C1310.51 147.978 1308.87 149.535 1308.26 150.832C1306.88 153.859 1305.92 153.686 1304.89 150.227C1304.11 147.459 1304.11 147.459 1298.48 147.546C1295.45 147.632 1291.38 148.065 1289.39 148.67C1284.97 149.881 1280.04 153.081 1279.69 155.07C1279.43 156.541 1282.55 160.259 1284.8 161.038C1285.75 161.384 1286.01 163.373 1285.93 170.638C1285.84 179.632 1285.75 179.892 1283.16 182.919C1279.95 186.465 1279.87 186.897 1281.94 189.319C1285.84 193.989 1309.82 193.557 1312.33 188.627C1313.2 186.984 1312.07 183.351 1310.69 183.351C1310.17 183.351 1308.78 182.4 1307.66 181.189C1305.66 179.286 1305.49 178.422 1305.49 171.762C1305.49 160.692 1306.27 159.741 1311.03 164.757C1313.46 167.265 1314.5 167.784 1317.53 167.784C1327.91 167.784 1330.51 152.216 1320.9 147.892C1316.57 145.903 1315.45 145.816 1311.98 147.373Z" fill="#0B4A78"/>
<path d="M1017.04 147.978C1007.77 149.103 1003.88 150.486 1003.53 152.822C1003.27 154.638 1003.88 155.503 1007.25 157.838C1008.73 158.789 1008.99 159.827 1008.81 164.497C1008.47 172.195 1009.94 183.697 1011.67 187.243C1013.57 191.395 1016.78 192.865 1023.53 192.865C1028.55 192.865 1029.68 192.519 1033.75 189.751C1038.07 186.897 1038.42 186.811 1039.46 188.195C1040.06 189.059 1040.58 190.443 1040.58 191.308C1040.58 192.605 1041.36 192.865 1045.61 192.865C1054.09 192.865 1062.23 190.097 1064.04 186.638C1064.91 184.995 1064.74 184.476 1061.97 182.141L1058.94 179.459L1059.37 164.151L1059.89 148.843L1057.55 147.978C1056.08 147.373 1052.44 147.373 1047.16 147.805C1035.3 148.93 1032.79 151.092 1037.29 156.368C1039.89 159.395 1040.32 162.681 1039.81 172.973C1039.55 179.546 1037.9 181.795 1033.83 181.449C1028.81 181.016 1028.29 179.286 1028.72 162.768C1028.98 149.968 1028.9 148.584 1027.51 147.805C1026.65 147.373 1025.43 147.114 1024.83 147.114C1024.22 147.2 1020.67 147.632 1017.04 147.978Z" fill="#0B4A78"/>
<path d="M781.044 148.843C775.85 149.795 772.3 152.043 769.011 156.368C765.548 160.951 764.422 164.843 764.422 172.714C764.422 187.935 772.127 196.497 785.979 196.497C795.328 196.497 801.475 193.038 804.678 185.859C805.544 184.043 806.063 182.314 805.89 182.141C805.717 181.968 803.899 181.622 801.994 181.449C798.618 181.016 798.358 181.103 796.973 183.87C794.809 188.454 790.913 190.443 784.94 190.011C780.871 189.751 779.486 189.232 777.321 187.157C774.291 184.303 772.214 180.151 772.214 176.865V174.703H789.095C802.773 174.703 806.15 174.443 806.496 173.492C807.275 171.416 805.024 161.384 802.946 157.751C800.349 153.341 795.069 149.795 789.355 148.757C786.931 148.238 784.94 147.892 784.853 147.978C784.853 148.065 783.035 148.411 781.044 148.843ZM793.943 158.011C796.367 160.346 797.493 162.249 797.925 164.497L798.445 167.784H785.286C775.763 167.784 772.214 167.524 772.214 166.746C772.214 166.227 772.993 164.065 774.032 162.076C776.369 157.059 780.092 154.811 785.892 154.811C789.961 154.811 790.827 155.157 793.943 158.011Z" fill="#0B4A78"/>
<path d="M472.245 150.4C464.973 152.216 460.991 158.097 461.597 166.227C462.03 172.281 463.934 175.222 469.302 177.989C472.332 179.632 474.063 179.892 477.613 179.632C483.413 179.027 488.001 176.778 489.559 173.751C491.291 170.465 491.204 170.378 488.347 170.378C486.703 170.378 485.404 171.07 484.452 172.541C481.249 177.47 472.245 176.778 468.609 171.33C465.06 166.141 465.233 166.054 479.258 166.054H491.983L491.377 162.422C490.165 155.157 485.837 151.092 478.219 150.141C476.401 149.881 473.63 150.054 472.245 150.4ZM483.153 156.454C487.741 161.038 486.876 161.73 476.574 161.73C466.272 161.73 465.406 161.038 469.994 156.454C472.072 154.378 473.284 153.946 476.574 153.946C479.864 153.946 481.076 154.378 483.153 156.454Z" fill="#0B4A78"/>
<path d="M507.913 151.697C504.103 153.6 503.844 153.6 503.844 152.13C503.844 150.919 503.238 150.486 501.247 150.486H498.649V164.757V179.027H501.247H503.844V170.465C503.844 165.795 504.277 160.778 504.796 159.222C506.614 154.032 514.319 152.216 518.128 156.108C520.206 158.097 520.292 158.703 520.292 168.649V179.027H522.889H525.486V167.957C525.486 154.984 524.361 152.043 518.82 150.573C514.059 149.189 512.414 149.362 507.913 151.697Z" fill="#0B4A78"/>
<path d="M543.06 150.486C538.818 151.438 536.048 153.6 534.144 157.405C530.421 164.67 533.191 174.443 539.684 177.384C544.359 179.459 549.467 179.459 553.016 177.297L555.786 175.568V178.854C555.7 184.216 552.497 186.811 545.831 186.811C542.801 186.811 541.415 186.378 539.944 184.822C537.866 182.573 533.278 181.016 533.278 182.486C533.278 185.081 536.135 188.454 539.078 189.492C543.493 190.962 551.285 190.876 554.488 189.232C560.375 186.119 560.548 185.773 560.807 167.265L561.067 150.486H558.903C557.258 150.486 556.652 150.919 556.652 152.13C556.652 153.6 556.392 153.6 552.583 151.697C548.341 149.535 547.475 149.362 543.06 150.486ZM553.189 156.368C558.383 161.557 557.258 170.984 551.111 174.097C547.995 175.741 547.475 175.741 544.186 174.616C539.511 172.973 537.347 169.081 537.866 163.114C538.212 159.654 538.818 158.357 540.983 156.368C544.792 152.995 549.726 152.995 553.189 156.368Z" fill="#0B4A78"/>
<path d="M578.035 150.832C571.629 153.168 568.685 157.578 568.599 164.67C568.512 170.292 570.676 174.962 574.312 177.211C580.805 181.276 591.021 180.238 595.609 175.049C598.899 171.243 598.899 170.378 595.609 170.378C593.791 170.378 592.233 171.157 590.588 172.973C586.692 177.384 578.468 176.432 575.438 171.33C572.408 166.227 572.754 166.054 586.086 166.054H598.206V162.681C598.206 153.859 587.211 147.459 578.035 150.832ZM588.77 154.811C590.415 155.762 593.445 160.692 592.752 161.384C592.579 161.643 588.25 161.643 583.229 161.557L574.053 161.297L575.351 158.616C576.044 157.146 577.516 155.503 578.554 154.984C581.065 153.773 586.605 153.686 588.77 154.811Z" fill="#0B4A78"/>
<path d="M446.014 196.497C444.283 198.227 444.802 202.119 446.88 203.589C448.611 204.8 457.009 204.973 520.465 204.973C591.021 204.973 592.146 204.973 593.878 203.243C595.782 201.341 596.042 199.611 594.743 197.103C593.878 195.459 592.06 195.459 520.465 195.459C464.54 195.459 446.793 195.719 446.014 196.497Z" fill="#0B4A78"/>
<path d="M759.661 209.297C752.129 215.697 745.723 219.157 736.979 221.578C730.66 223.308 727.803 223.481 693.867 223.827C662.355 224.086 657.334 224.346 656.035 225.47C654.044 227.286 654.044 230.314 656.122 232.13C657.68 233.514 660.883 233.6 697.07 233.341C734.123 232.995 736.633 232.908 743.039 231.092C753.947 228.065 759.488 224.605 769.444 214.746C774.292 209.903 778.274 205.492 778.274 204.973C778.274 204.454 775.763 204.108 772.041 204.108L765.721 204.195L759.661 209.297Z" fill="#0B4A78"/>
</svg>
