<svg width="419" height="583" viewBox="0 0 419 583" fill="none" xmlns="http://www.w3.org/2000/svg">
<g clip-path="url(#clip0_16_6)">
<path d="M182.779 437.477C179.23 439.109 177.677 440.741 176.124 444.451C175.163 446.825 175.015 454.986 175.015 508.553C175.015 548.543 175.311 570.949 175.755 572.729C177.973 580.668 186.254 584.303 193.87 580.816C200.377 577.849 201.116 575.549 201.634 557.742L202.004 543.275L215.608 543.052C224.112 542.978 229.583 542.533 230.249 542.088C230.914 541.494 231.21 539.12 231.21 534.298C231.21 530.44 231.432 527.324 231.801 527.324C232.097 527.324 234.759 529.178 237.717 531.404C243.188 535.485 244.075 535.856 246.368 535.04C247.846 534.446 249.103 531.478 248.438 529.846C247.994 528.733 232.467 516.566 229.213 514.859C226.995 513.672 226.256 513.746 224.555 515.453C223.224 516.788 223.076 517.901 223.076 525.84V534.743H212.355H201.634L201.782 509.295L202.004 483.921H222.337H242.671L242.892 494.456C242.966 500.318 242.892 505.066 242.597 505.066C242.375 505.066 239.639 503.211 236.607 500.985C233.502 498.76 230.47 496.905 229.731 496.905C227.956 496.905 226.034 499.279 226.034 501.579C226.034 503.137 227.661 504.695 235.868 510.927C241.266 515.082 246.294 518.421 246.959 518.421C247.625 518.421 248.882 517.753 249.695 516.937C251.1 515.527 251.174 514.488 251.174 496.905C251.174 479.321 251.1 478.283 249.695 476.873C248.29 475.463 247.255 475.389 224.925 475.389C202.373 475.389 201.634 475.315 201.634 473.979C201.634 472.496 199.046 470.196 197.419 470.196C196.902 470.196 195.793 470.863 194.979 471.679C193.5 473.163 193.5 474.128 193.5 521.314C193.5 568.871 193.5 569.465 191.948 571.394C190.025 573.842 187.363 573.916 184.997 571.468L183.149 569.687V509.74C183.149 463.073 183.371 449.348 184.11 447.938C185.515 445.119 188.62 444.377 191.134 446.232C192.761 447.419 193.279 448.531 193.722 452.093C194.092 454.467 194.61 456.989 194.905 457.583C195.423 458.547 200.968 458.77 235.351 459.141C275.352 459.586 279.197 459.809 287.774 462.554C294.059 464.483 301.083 468.638 305.372 472.792C309.217 476.576 314.762 484.589 314.762 486.444C314.762 486.963 316.685 487.26 320.308 487.26H325.853L323.561 482.586C316.759 469.083 307.59 460.402 295.242 455.728C284.151 451.499 283.486 451.499 241.192 451.128L201.93 450.757L201.116 447.122C199.933 442.225 197.641 439.183 193.944 437.477C190.099 435.696 186.55 435.696 182.779 437.477Z" fill="#0B4A78"/>
<path d="M83.3296 476.873C81.4811 478.728 81.4072 480.731 83.1817 482.289C84.4387 483.402 88.2836 483.55 123.109 483.55H161.706L162.815 481.77C164.146 479.766 163.333 476.65 161.336 475.834C160.671 475.612 143.147 475.389 122.444 475.389C85.7696 475.389 84.7345 475.463 83.3296 476.873Z" fill="#0B4A78"/>
<path d="M267.44 507.292V534.743H284.447H301.453V531.775V528.807H287.774H274.095V504.324V479.841H270.768H267.44V507.292Z" fill="#0B4A78"/>
<path d="M377.611 489.486C377.611 494.753 377.315 499.131 376.946 499.131C376.576 499.131 375.91 498.611 375.393 497.943C371.178 492.973 360.901 493.418 355.355 498.834C351.51 502.618 349.884 507.44 349.884 515.527C349.884 521.091 350.179 522.353 352.102 526.137C357.056 535.782 368.664 538.898 375.319 532.369L377.611 530.143V532.443C377.611 534.669 377.759 534.743 380.569 534.743H383.526V507.292V479.841H380.569H377.611V489.486ZM371.696 500.985C375.467 502.989 377.167 506.772 377.463 514.34C377.759 520.127 377.537 521.537 376.206 524.133C374.062 528.362 371.178 530.291 366.89 530.291C363.858 530.291 363.045 529.92 360.605 527.472C357.13 524.059 355.873 519.756 356.316 513.227C356.76 507.292 358.608 503.137 361.64 501.282C364.376 499.576 368.738 499.502 371.696 500.985Z" fill="#0B4A78"/>
<path d="M321.565 494.753C317.128 495.569 314.097 497.498 311.287 501.208C308.329 505.14 307.368 508.479 307.368 515.23C307.368 528.288 313.949 535.633 325.779 535.633C333.765 535.633 339.015 532.665 341.75 526.508C342.49 524.949 342.933 523.466 342.785 523.317C342.638 523.169 341.085 522.872 339.458 522.724C336.575 522.353 336.353 522.427 335.17 524.801C333.321 528.733 329.994 530.44 324.892 530.069C321.417 529.846 320.234 529.401 318.385 527.62C315.797 525.172 314.023 521.611 314.023 518.792V516.937H328.441C340.124 516.937 343.007 516.714 343.303 515.898C343.969 514.117 342.046 505.511 340.272 502.395C338.053 498.611 333.543 495.569 328.663 494.679C326.593 494.234 324.892 493.937 324.818 494.011C324.818 494.086 323.265 494.382 321.565 494.753ZM332.582 502.618C334.652 504.621 335.613 506.253 335.983 508.182L336.427 511.001H325.188C317.054 511.001 314.023 510.779 314.023 510.111C314.023 509.666 314.688 507.811 315.576 506.105C317.572 501.802 320.751 499.873 325.705 499.873C329.18 499.873 329.92 500.169 332.582 502.618Z" fill="#0B4A78"/>
<path d="M57.8205 496.089C51.6096 497.647 48.2083 502.692 48.7259 509.666C49.0956 514.859 50.7223 517.382 55.3066 519.756C57.8945 521.166 59.3733 521.388 62.4048 521.166C67.3588 520.646 71.2776 518.717 72.6086 516.121C74.0874 513.301 74.0134 513.227 71.5734 513.227C70.1685 513.227 69.0594 513.821 68.2461 515.082C65.5103 519.311 57.8205 518.717 54.7151 514.043C51.6835 509.592 51.8314 509.518 63.8097 509.518H74.6789L74.1613 506.401C73.1261 500.169 69.4291 496.682 62.9224 495.866C61.3697 495.644 59.0036 495.792 57.8205 496.089ZM67.137 501.282C71.0558 505.214 70.3164 505.808 61.5175 505.808C52.7187 505.808 51.9793 505.214 55.8981 501.282C57.6727 499.502 58.7078 499.131 61.5175 499.131C64.3273 499.131 65.3624 499.502 67.137 501.282Z" fill="#0B4A78"/>
<path d="M88.2837 497.202C85.0303 498.834 84.8085 498.834 84.8085 497.573C84.8085 496.534 84.2909 496.163 82.5903 496.163H80.3721V508.405V520.646H82.5903H84.8085V513.301C84.8085 509.295 85.1782 504.992 85.6218 503.656C87.1746 499.205 93.7552 497.647 97.0086 500.985C98.7832 502.692 98.8571 503.211 98.8571 511.743V520.646H101.075H103.294V511.15C103.294 500.021 102.332 497.498 97.6001 496.237C93.5334 495.05 92.1285 495.198 88.2837 497.202Z" fill="#0B4A78"/>
<path d="M118.303 496.163C114.68 496.979 112.314 498.834 110.688 502.098C107.508 508.33 109.874 516.714 115.42 519.237C119.412 521.017 123.775 521.017 126.806 519.162L129.173 517.679V520.498C129.099 525.098 126.363 527.324 120.669 527.324C118.082 527.324 116.898 526.953 115.642 525.617C113.867 523.688 109.948 522.353 109.948 523.614C109.948 525.84 112.388 528.733 114.902 529.624C118.673 530.885 125.328 530.811 128.063 529.401C133.091 526.73 133.239 526.433 133.461 510.556L133.683 496.163H131.834C130.43 496.163 129.912 496.534 129.912 497.573C129.912 498.834 129.69 498.834 126.437 497.202C122.814 495.347 122.074 495.198 118.303 496.163ZM126.954 501.208C131.391 505.66 130.43 513.746 125.18 516.417C122.518 517.827 122.074 517.827 119.265 516.863C115.272 515.453 113.423 512.114 113.867 506.995C114.163 504.027 114.68 502.914 116.529 501.208C119.782 498.314 123.997 498.314 126.954 501.208Z" fill="#0B4A78"/>
<path d="M148.175 496.46C142.704 498.463 140.19 502.247 140.116 508.33C140.042 513.153 141.89 517.159 144.996 519.088C150.541 522.575 159.266 521.685 163.185 517.234C165.995 513.969 165.995 513.227 163.185 513.227C161.632 513.227 160.301 513.895 158.896 515.453C155.569 519.237 148.545 518.421 145.957 514.043C143.369 509.666 143.665 509.518 155.052 509.518H165.403V506.624C165.403 499.056 156.013 493.566 148.175 496.46ZM157.344 499.873C158.749 500.689 161.336 504.918 160.745 505.511C160.597 505.734 156.9 505.734 152.612 505.66L144.774 505.437L145.883 503.137C146.475 501.876 147.731 500.466 148.619 500.021C150.763 498.982 155.495 498.908 157.344 499.873Z" fill="#0B4A78"/>
<path d="M35.4166 535.633C33.9378 537.117 34.3814 540.456 36.156 541.717C37.6348 542.756 44.807 542.904 99.0051 542.904C159.266 542.904 160.227 542.904 161.706 541.42C163.333 539.788 163.555 538.304 162.446 536.153C161.706 534.743 160.154 534.743 99.0051 534.743C51.2398 534.743 36.082 534.965 35.4166 535.633Z" fill="#0B4A78"/>
<path d="M303.301 546.614C296.869 552.104 291.397 555.072 283.929 557.149C278.532 558.633 276.092 558.781 247.107 559.078C220.193 559.301 215.904 559.523 214.795 560.488C213.095 562.046 213.095 564.642 214.869 566.2C216.2 567.387 218.936 567.462 249.843 567.239C281.489 566.942 283.633 566.868 289.105 565.31C298.421 562.713 303.154 559.746 311.657 551.288C315.797 547.133 319.199 543.349 319.199 542.904C319.199 542.459 317.054 542.162 313.875 542.162L308.477 542.236L303.301 546.614Z" fill="#0B4A78"/>
</g>
<g clip-path="url(#clip1_16_6)">
<path d="M175.905 330.514C164.694 332.193 158.217 334.964 156.722 338.658C155.725 341.009 155.808 341.345 157.552 342.521C158.632 343.276 160.376 344.704 161.538 345.795L163.614 347.726L163.282 364.098L163.033 380.471L160.293 382.738C155.393 386.852 157.469 389.874 166.355 391.302C172.833 392.393 181.802 391.722 185.206 389.958C188.528 388.195 188.86 386.012 186.037 383.158C183.629 380.807 183.629 380.807 183.047 366.449C182.715 358.641 182.715 347.726 183.047 342.353C183.795 330.01 183.462 329.423 175.905 330.514Z" fill="#0B4A78"/>
<path d="M208.708 338.155C207.795 338.407 205.137 340.002 202.812 341.765C200.57 343.528 196.75 345.879 194.507 347.054C189.857 349.405 188.611 350.665 188.362 353.1C187.947 356.542 188.279 356.878 191.933 356.878H195.421V369.304C195.504 380.471 195.67 381.982 197.414 385.257C201.732 393.737 216.099 394.408 224.487 386.6C226.231 385.005 226.646 383.913 226.397 381.394C226.148 378.456 225.982 378.288 223.657 378.54C216.432 379.211 216.265 379.211 215.186 377.028C214.438 375.601 214.189 372.075 214.272 366.114L214.522 357.298L220.335 356.878L226.148 356.458V353.1V349.741L220.169 349.07L214.106 348.314V343.78C214.106 340.254 213.774 339.162 212.528 338.407C211.615 337.987 210.784 337.651 210.618 337.651C210.452 337.735 209.622 337.987 208.708 338.155Z" fill="#0B4A78"/>
<path d="M23.1009 348.734C11.5575 351.756 9.23225 354.359 13.5506 359.565C15.4607 361.916 15.6268 362.671 15.6268 371.487C15.6268 380.471 15.5437 381.059 13.5506 382.906C10.8932 385.508 10.8932 388.363 13.6337 390.126C16.2911 391.889 31.5716 392.225 34.4782 390.63C37.5509 388.951 38.2152 386.852 36.8034 383.409C35.3086 379.967 35.0595 365.19 36.3882 362.671C37.5509 360.488 40.1253 360.656 41.7031 362.923C43.8623 366.03 43.5302 379.043 41.2049 383.409C38.0491 389.455 40.7066 391.47 52.1669 391.554C60.6376 391.638 65.1221 390.042 65.9525 386.684C66.3677 385.089 66.0356 383.997 64.7068 382.57C63.0459 380.807 62.7968 379.547 62.7137 371.991C62.5476 363.931 62.6307 363.343 64.5407 361.832C66.866 359.9 67.1982 359.9 69.1913 361.412C71.4335 363.091 72.0979 378.456 70.1048 383.242C68.1117 388.195 68.3608 389.371 71.9318 390.546C76.001 392.057 89.2884 391.973 92.0289 390.462C96.0151 388.363 96.3473 386.348 93.1085 383.325L90.7832 381.226L91.0323 370.396C91.3645 358.473 90.451 353.519 87.4614 350.581C82.7278 345.711 72.5962 346.131 66.4508 351.42L63.129 354.359L61.8002 352.26C57.5649 345.795 46.4368 345.375 39.7931 351.504C38.0491 353.016 36.3882 354.359 36.2221 354.359C35.973 354.359 35.5578 352.848 35.2256 351.085C34.4782 346.215 33.4816 346.047 23.1009 348.734Z" fill="#0B4A78"/>
<path d="M239.02 348.734C227.476 351.756 225.151 354.359 229.47 359.565C231.38 361.916 231.546 362.671 231.546 371.487C231.546 380.471 231.463 381.059 229.47 382.906C226.812 385.508 226.812 388.363 229.553 390.126C232.21 391.889 247.491 392.225 250.397 390.63C253.47 388.951 254.134 386.852 252.722 383.409C251.228 379.967 250.978 365.19 252.307 362.671C253.47 360.488 256.044 360.656 257.622 362.923C259.781 366.03 259.449 379.043 257.124 383.409C253.968 389.455 256.626 391.47 268.086 391.554C276.557 391.638 281.041 390.042 281.871 386.684C282.287 385.089 281.955 383.997 280.626 382.57C278.965 380.807 278.716 379.547 278.633 371.991C278.467 363.931 278.55 363.343 280.46 361.832C282.785 359.9 283.117 359.9 285.11 361.412C287.352 363.091 288.017 378.456 286.024 383.242C284.031 388.195 284.28 389.371 287.851 390.546C291.92 392.057 305.207 391.973 307.948 390.462C311.934 388.363 312.266 386.348 309.027 383.325L306.702 381.226L306.951 370.396C307.283 358.473 306.37 353.519 303.38 350.581C298.647 345.711 288.515 346.131 282.37 351.42L279.048 354.359L277.719 352.26C273.484 345.795 262.356 345.375 255.712 351.504C253.968 353.016 252.307 354.359 252.141 354.359C251.892 354.359 251.477 352.848 251.145 351.085C250.397 346.215 249.401 346.047 239.02 348.734Z" fill="#0B4A78"/>
<path d="M331.533 347.642C326.384 348.398 319.076 351.504 317.249 353.771C313.678 358.137 316.419 364.266 321.567 363.259C323.228 362.923 325.388 361.328 327.879 358.557C329.955 356.206 332.28 354.359 333.028 354.359C334.855 354.359 336.682 357.214 337.346 361.076C338.094 365.442 337.18 366.197 330.702 366.365C319.99 366.785 312.931 372.243 312.931 380.303C312.931 388.111 317.83 392.141 327.298 392.141C331.616 392.141 333.194 391.722 335.768 390.042L338.841 387.859L340.917 390.042C342.744 391.889 343.741 392.141 348.64 392.141C355.782 392.141 359.685 389.874 360.101 385.508C360.35 383.242 359.935 382.318 358.025 380.723C355.865 378.96 355.699 378.456 355.948 373.502C356.198 365.946 354.703 356.29 352.793 353.1C349.803 348.146 341.997 346.215 331.533 347.642ZM337.346 375.433C338.01 378.708 337.097 382.654 335.602 383.242C334.938 383.493 333.692 383.325 332.779 382.906C329.54 381.143 329.706 374.174 333.111 372.914C335.685 371.907 336.765 372.579 337.346 375.433Z" fill="#0B4A78"/>
<path d="M392.239 347.978C390.828 348.566 389.25 350.077 388.668 351.336C387.34 354.275 386.426 354.107 385.43 350.749C384.682 348.062 384.682 348.062 379.284 348.146C376.378 348.23 372.475 348.65 370.565 349.237C366.329 350.413 361.596 353.519 361.263 355.451C361.014 356.878 364.004 360.488 366.163 361.244C367.077 361.58 367.326 363.511 367.243 370.563C367.16 379.295 367.077 379.547 364.585 382.486C361.513 385.928 361.429 386.348 363.423 388.699C367.16 393.233 390.163 392.813 392.572 388.027C393.402 386.432 392.323 382.906 390.994 382.906C390.496 382.906 389.167 381.982 388.087 380.807C386.177 378.96 386.011 378.12 386.011 371.655C386.011 360.908 386.758 359.984 391.326 364.854C393.651 367.289 394.648 367.793 397.554 367.793C407.52 367.793 410.011 352.68 400.793 348.482C396.641 346.551 395.561 346.467 392.239 347.978Z" fill="#0B4A78"/>
<path d="M109.303 348.566C100.417 349.657 96.6796 351.001 96.3474 353.268C96.0983 355.031 96.6796 355.87 99.9184 358.137C101.33 359.061 101.579 360.068 101.413 364.602C101.081 372.075 102.493 383.242 104.154 386.684C105.981 390.714 109.053 392.141 115.531 392.141C120.348 392.141 121.427 391.806 125.33 389.119C129.483 386.348 129.815 386.264 130.811 387.607C131.393 388.447 131.891 389.79 131.891 390.63C131.891 391.889 132.638 392.141 136.708 392.141C144.846 392.141 152.652 389.455 154.396 386.096C155.227 384.501 155.061 383.997 152.403 381.73L149.497 379.127L149.912 364.266L150.41 349.405L148.168 348.566C146.756 347.978 143.268 347.978 138.203 348.398C126.825 349.489 124.417 351.588 128.735 356.71C131.227 359.649 131.642 362.839 131.144 372.83C130.894 379.211 129.317 381.394 125.413 381.059C120.597 380.639 120.099 378.96 120.514 362.923C120.763 350.497 120.68 349.153 119.351 348.398C118.521 347.978 117.358 347.726 116.777 347.726C116.195 347.81 112.79 348.23 109.303 348.566Z" fill="#0B4A78"/>
</g>
<g clip-path="url(#clip2_16_6)">
<path d="M194.785 0.990524C163.706 4.53647 134.964 18.1148 112.369 39.7365C100.855 50.7203 90.9862 63.6067 84.4934 76.2338C81.7231 81.3365 79.1259 85.8338 78.6931 86.1797C78.1737 86.4392 75.4034 85.5743 72.46 84.104C65.188 80.5581 59.128 79.3473 49.3455 79.3473C34.109 79.2608 24.0668 83.1527 14.1977 93.0122C4.32855 102.785 0 113.942 0 129.855C0 139.801 2.16428 149.142 6.23312 156.753C9.60939 163.153 17.1411 170.936 22.7682 173.877C26.6639 175.953 26.837 176.212 26.231 178.634C25.7982 180.018 25.5385 185.466 25.5385 190.742C25.5385 199.909 25.625 200.515 28.655 206.742C30.3864 210.288 33.4164 215.045 35.4941 217.38C59.128 243.931 120.68 251.801 192.188 237.358C199.979 235.801 206.645 234.764 206.905 234.937C207.165 235.196 207.511 241.509 207.771 248.947L208.203 262.526L210.454 262.785C212.445 263.045 215.475 260.191 233.136 241.509C244.304 229.661 253.913 219.196 254.432 218.158C254.952 217.207 255.125 215.737 254.865 215.045C254.259 213.401 254.865 213.574 220.41 205.272C192.101 198.439 190.456 198.266 189.764 201.899C189.591 202.677 192.274 207.088 195.651 211.672C199.113 216.169 201.537 220.234 201.105 220.58C200.239 221.445 181.02 225.25 168.814 226.98C142.496 230.785 110.898 231.045 91.5056 227.585C57.6563 221.618 39.3033 208.299 39.3898 189.877C39.4764 180.623 39.3033 180.796 48.6529 180.796C55.5786 180.796 63.1103 179.672 69.7763 177.769C71.4211 177.25 71.854 178.115 74.7974 187.369C78.4334 198.785 87.6099 217.466 90.3802 219.282C92.9773 220.926 108.733 222.309 125.009 222.309C140.072 222.309 157.3 221.012 158.858 219.715C159.81 218.937 171.584 216.774 181.54 215.564L186.993 214.958L183.79 210.461C181.713 207.434 180.587 204.839 180.587 202.85L180.501 199.823L176.172 200.342C173.835 200.688 167.948 201.553 163.186 202.418C158.425 203.282 154.183 203.628 153.837 203.282C153.404 202.937 151.932 196.882 150.547 189.877C148.296 178.634 148.123 176.904 149.162 175.78C150.287 174.742 151.153 174.828 155.914 176.731C170.891 182.699 185.608 182.18 201.97 175.174C203.355 174.569 203.442 175.347 203.442 184.082V193.596L209.329 194.98C212.532 195.758 215.822 196.623 216.687 196.882C217.986 197.315 218.159 196.537 218.159 188.753V180.104L240.494 179.672C257.116 179.412 263.782 178.98 266.812 177.942C272.612 176.126 273.738 177.164 272.612 183.304C272.093 185.812 271.92 188.061 272.093 188.234C272.266 188.407 276.421 186.677 281.269 184.255C287.502 181.228 291.138 179.931 293.736 179.931C300.921 179.845 307.933 174.915 310.184 168.255C312.002 163.066 314.513 163.153 316.85 168.342C317.802 170.677 318.495 172.926 318.235 173.358C317.456 175.434 279.192 195.153 268.197 199.218C266.899 199.65 266.985 200.342 269.323 205.618C270.794 208.818 272.266 211.845 272.699 212.191C274.171 213.834 311.569 195.066 328.018 184.515C335.117 179.931 335.29 179.845 341.003 180.104L346.717 180.364L338.666 185.812C330.615 191.174 330.528 191.261 326.806 198.872C322.477 207.78 316.158 217.985 315.032 217.985C314.599 217.985 309.751 216.428 304.297 214.526L294.342 211.153L283.607 215.823C277.807 218.418 272.093 220.58 271.054 220.58C267.331 220.58 265.6 218.677 261.791 210.547C259.713 206.05 257.809 202.418 257.549 202.418C257.289 202.418 253.307 201.899 248.632 201.207C244.044 200.515 237.291 199.737 233.742 199.477C227.336 199.045 227.509 199.131 240.494 202.418C247.766 204.234 254.779 206.482 256.25 207.261C259.54 209.25 261.791 213.488 261.271 216.947C261.098 218.418 261.271 219.801 261.791 219.974C263.089 220.407 259.28 229.834 254.259 238.569C245.775 253.358 237.205 262.439 226.73 267.628C219.631 271.174 218.159 271.434 218.159 269.012C218.159 267.282 218.159 267.282 215.389 269.012C212.359 270.828 207.338 271.261 205.173 269.877C204.394 269.358 203.702 269.445 203.355 270.05C202.49 271.434 195.997 268.839 189.677 264.601C185.002 261.488 179.375 256.126 175.22 250.677L173.488 248.428L165.524 249.38L157.559 250.418L160.33 254.482C161.888 256.645 164.052 259.672 165.178 261.142C166.303 262.612 166.736 263.823 166.216 263.823C164.745 263.823 147.604 255.607 144.574 253.445C142.063 251.628 141.371 251.628 130.549 252.234L119.122 252.839L122.065 255.347C136.09 267.196 161.368 278.958 181.799 283.196C213.225 289.769 246.381 285.272 275.989 270.396C289.753 263.477 299.19 256.558 311.742 244.018C328.797 226.98 338.926 210.893 346.284 189.185L349.487 179.845L378.142 179.672L406.711 179.499L410.433 176.904C415.887 173.099 417.619 168.947 417.965 159.52C418.398 150.093 417.273 145.509 413.55 141.272C409.481 136.688 406.711 135.823 395.197 135.823C388.704 135.823 385.241 135.477 385.241 134.872C385.241 134.353 386.453 132.191 387.925 130.115C392.427 123.542 397.188 112.385 398.746 104.515C405.672 71.0446 374.68 46.3959 319.967 41.9851L312.175 41.2932L304.557 34.9797C272.526 8.34188 234.175 -3.50677 194.785 0.990524ZM203.442 45.0122V74.4176H198.94C189.937 74.4176 160.07 70.2662 158.598 68.7959C157.992 68.277 160.243 62.3094 163.792 54.6986C168.64 44.4932 176.518 33.077 183.011 27.1094C188.119 22.2662 199.373 15.6067 202.23 15.6067C203.269 15.6067 203.442 20.7094 203.442 45.0122ZM227.682 18.8932C233.828 21.9203 245.256 33.1635 250.623 41.3797C254.692 47.7797 260.492 59.2824 262.743 65.6824L263.869 69.0554L255.991 70.5257C245.516 72.4284 229.327 74.3311 223.18 74.4176H218.159V44.9257V15.4338L220.583 15.9527C221.882 16.2986 225.085 17.5959 227.682 18.8932ZM162.407 28.7527C156.261 37.0554 150.028 48.0392 146.305 57.3797C144.314 62.223 142.842 64.904 141.977 64.904C140.159 64.904 117.563 57.2932 116.698 56.4284C115.746 55.477 125.528 46.3094 135.051 39.2176C141.977 34.0284 163.36 22.5257 165.957 22.5257C166.649 22.5257 165.178 25.2067 162.407 28.7527ZM266.466 27.2824C271.747 29.7905 279.625 34.2878 283.78 37.1419C292.264 43.023 305.856 55.1311 305.163 56.2554C304.557 57.2932 280.577 65.077 279.451 64.7311C278.932 64.5581 276.681 60.2338 274.43 55.1311C269.582 44.3203 264.734 35.9311 258.847 28.1473C256.51 25.0338 255.038 22.5257 255.644 22.5257C256.25 22.5257 261.098 24.6878 266.466 27.2824ZM337.194 58.85C354.682 62.223 369.052 68.5365 376.671 76.1473C382.731 82.2013 384.635 86.4392 384.895 94.7419C385.155 101.055 385.068 101.228 384.462 96.904C382.817 85.1419 376.238 80.4716 361.434 80.5581C353.383 80.5581 348.362 81.5959 345.245 83.9311C343.86 84.9689 342.475 85.6608 342.302 85.4013C342.042 85.2284 340.138 81.5959 337.973 77.3581C335.809 73.2067 332.26 67.0662 330.182 63.8662C328.104 60.5797 326.373 57.7257 326.373 57.5527C326.373 56.8608 327.498 57.0338 337.194 58.85ZM127.779 77.877C132.973 79.4338 137.388 80.8176 137.561 80.9905C137.994 81.423 133.579 102.266 131.588 109.012C129.424 116.191 128.125 124.58 128.125 130.807V135.823H124.749H121.286L121.026 113.942L120.767 91.9743L118.343 88.4284C115.486 84.0176 110.724 81.5095 103.885 80.7311C101.028 80.4716 98.691 80.0392 98.691 79.8662C98.691 79.6932 100.076 77.4446 101.721 74.85L104.751 70.0932L111.504 72.6013C115.226 73.9851 122.585 76.4067 127.779 77.877ZM319.88 74.5905C321.525 77.0986 322.91 79.4338 322.91 79.7797C322.91 80.2122 318.322 80.4716 312.781 80.4716C297.978 80.5581 293.562 83.0662 289.58 93.6176C288.714 95.9527 287.935 97.7689 287.849 97.7689C287.502 97.7689 283.78 81.25 284.126 80.9905C284.213 80.8176 289.061 79.3473 294.774 77.6176C300.488 75.9743 307.674 73.5527 310.79 72.3419C313.907 71.2176 316.504 70.1797 316.59 70.1797C316.677 70.0932 318.149 72.1689 319.88 74.5905ZM60.5997 96.904C66.1403 98.3743 71.5943 102.526 74.4511 107.455C78.2602 114.201 77.8274 115.153 70.5554 116.623C65.0149 117.747 64.4954 117.747 63.6297 116.364C59.9937 110.05 55.492 107.282 48.9126 107.282C40.9481 107.282 34.0224 112.212 31.5119 119.65C29.4342 126.05 30.1267 137.726 32.9836 143.261C37.745 152.515 48.7395 155.369 59.3012 150.093C64.4954 147.499 64.4954 147.499 64.7552 143.347L65.0149 139.282H57.2235H49.3455V133.228V127.174L63.8894 127.347L78.3468 127.607L78.6065 140.493C78.8662 155.369 78.9528 155.196 70.7286 159.261C56.1846 166.612 38.8704 166.007 28.049 157.791C16.3619 148.882 12.5528 127.088 20.0845 112.039C22.3353 107.542 28.1356 101.574 32.4641 99.2392C39.7361 95.4338 51.4232 94.4824 60.5997 96.904ZM190.197 97.9419C197.036 100.45 204.135 107.628 206.991 114.634C208.723 119.131 208.983 121.293 208.983 130.201C208.983 138.764 208.636 141.445 207.078 145.336C201.97 158.309 190.629 164.969 174.874 164.191C158.771 163.412 148.556 154.504 145.353 138.504C144.054 131.585 144.833 121.12 147.171 114.807C149.335 109.012 156.001 101.315 160.762 98.9797C169.333 94.9149 180.934 94.4824 190.197 97.9419ZM104.751 124.58V152.255H121.632H138.6L138.341 157.618L138.081 163.066L114.534 163.326L90.8996 163.499V130.201V96.904H97.8253H104.751V124.58ZM263.782 99.3257C273.738 104.601 275.383 118.007 266.985 125.358L264.042 128.039L267.418 129.769C279.365 135.823 277.893 155.282 265.081 161.164C261.358 162.893 259.28 163.066 240.494 163.326L219.89 163.672V130.201V96.8176L240.062 97.077C259.021 97.3365 260.319 97.423 263.782 99.3257ZM332.433 126.742C338.926 142.915 344.899 157.791 345.678 159.866L347.15 163.585L339.705 163.326L332.26 163.066L329.489 155.715L326.719 148.364H313.474H300.142L297.458 155.715L294.688 163.066L287.589 163.326C283.693 163.499 280.49 163.239 280.49 162.893C280.49 162.547 286.204 147.585 293.216 129.596L305.942 96.8176L313.301 97.077L320.659 97.3365L332.433 126.742ZM367.927 124.58V152.255H384.808H401.69V157.877V163.499L378.142 163.326L354.508 163.066L354.249 131.066C354.162 113.509 354.249 98.5473 354.508 98.0284C354.768 97.25 357.019 96.904 361.434 96.904H367.927V124.58ZM133.752 184.774C134.099 187.455 135.311 193.509 136.436 198.266C137.561 203.109 138.427 207.088 138.254 207.261C138.081 207.434 134.531 208.558 130.203 209.769C125.961 210.98 118.775 213.315 114.187 214.872L105.876 217.726L103.106 213.488C98.4313 206.396 93.7565 197.228 90.5533 188.839C88.8219 184.428 87.4368 180.536 87.4368 180.191C87.4368 179.845 97.7387 179.585 110.292 179.758L133.146 180.018L133.752 184.774ZM290.706 227.585C296.766 229.574 302.133 231.564 302.566 231.996C303.691 233.12 294.861 241.164 284.819 248.342C277.807 253.358 258.068 263.823 255.644 263.823C254.952 263.823 256.597 260.969 259.194 257.509C265.081 249.639 272.006 237.618 274.95 229.92C276.335 226.634 277.807 224.039 278.499 224.039C279.192 224.039 284.646 225.596 290.706 227.585Z" fill="#0B4A78"/>
<path d="M170.632 108.234C163.013 111.261 159.118 118.353 158.944 129.25C158.858 140.234 162.407 147.758 169.246 151.218C178.163 155.628 189.937 150.872 193.659 141.185C195.564 136.342 195.737 124.147 194.006 119.131C192.447 114.634 188.985 110.828 184.829 108.926C181.107 107.196 174.008 106.85 170.632 108.234ZM178.856 126.915C179.548 130.461 178.336 136.342 177.038 135.996C175.566 135.65 174.7 131.499 175.306 127.52C175.999 122.764 177.99 122.418 178.856 126.915Z" fill="#0B4A78"/>
<path d="M233.742 115.585V123.023L244.65 122.677C254.865 122.418 255.644 122.331 257.203 120.342C259.713 117.228 259.367 112.212 256.597 109.964C254.519 108.32 253.134 108.147 244.044 108.147H233.742V115.585Z" fill="#0B4A78"/>
<path d="M233.742 143.174V152.255H242.226C257.636 152.169 261.445 150.353 261.445 143.261C261.445 136.342 256.77 134.18 241.793 134.093H233.742V143.174Z" fill="#0B4A78"/>
<path d="M308.799 124.493C306.548 130.634 304.73 135.909 304.73 136.169C304.73 136.428 308.626 136.688 313.474 136.688C321.438 136.688 322.218 136.515 321.612 135.131C321.265 134.353 319.447 129.337 317.543 124.147C315.552 118.872 313.734 114.288 313.387 113.942C313.041 113.596 310.963 118.266 308.799 124.493Z" fill="#0B4A78"/>
</g>
<defs>
<clipPath id="clip0_16_6">
<rect width="349" height="146" fill="white" transform="matrix(1 0 0 -1 34.5264 582.141)"/>
</clipPath>
<clipPath id="clip1_16_6">
<rect width="395" height="62" fill="white" transform="matrix(1 0 0 -1 11.5264 392.141)"/>
</clipPath>
<clipPath id="clip2_16_6">
<rect width="418.053" height="286.083" fill="white" transform="matrix(1 0 0 -1 0 286.141)"/>
</clipPath>
</defs>
</svg>
