<?xml version="1.0" encoding="UTF-8"?>
<svg id="Layer_2" data-name="Layer 2" xmlns="http://www.w3.org/2000/svg" viewBox="0 0 129.74 44.14">
  <defs>
    <style>
      .cls-1 {
        fill: #fff;
        fill-rule: evenodd;
        stroke-width: 0px;
      }
    </style>
  </defs>
  <g id="Layer_1-2" data-name="Layer 1">
    <g>
      <path class="cls-1" d="M31.86,24.56h16.03c.48-1.82,1.6-4.31,2.32-6.23.77-2.05,1.22-3.98,5.29-3.13,2.51.52,9.79,3.79,12.6,4.96,4.17,1.73,8.26,3.44,12.38,5.18,2.25.95,10.94,4.91,12.71,4.91h2.63c-.58-.62-7.93-3.76-8.62-4.07l-34.87-15.88c-5.37-2.47-3.92-2.49-7.76,1.36-1.97,1.98-7.75,8.04-9.52,9.58l-2.8,2.7c-.37.45-.15.09-.39.63"/>
      <path class="cls-1" d="M33.31.1c1.27.71,2.95,1.34,4.33,1.99,1.45.69,2.87,1.31,4.37,1.99l26.13,11.89c1.25.57,12.34,5.96,13.21,5.63,0,0,15.44-15.11,15.84-15.94h-15.71c-.68.45-1.14,2.41-1.46,3.25-1.8,4.74-1.84,7.32-7.02,5.98-2.38-.62-23.52-9.57-25.87-10.61-2.1-.93-4.29-1.79-6.43-2.68-2.99-1.25-3.59-1.85-7.41-1.49"/>
      <path class="cls-1" d="M54.58,41.34c0-.93-.39-1.52-.37-1.87.03-.41.39-.72.39-1.92,0-1.81.15-3-1.9-3-2.88,0-13.05-.13-15.14.06v9.37c1.65.1,15.33.16,15.89-.06l.69-.49c.53-.54.44-1.22.43-2.08M39.48,36.67h10.86c1.42-.02,2.43-.32,2.1,1.29-1.19.33-10.88.14-12.96.1v-1.39ZM39.47,40.07h11.74c1.12,0,1.41.43.97,1.4-1,.32-10.7.15-12.71.12v-.75s0-.76,0-.76Z"/>
      <path class="cls-1" d="M114.74,37.87c-.35-1.71,1.38-1.17,2.88-1.17,2.26,0,11.11.15,12.13-.09l-.03-2.05c-3.72-.17-10.79-.04-14.85-.04-2.12,0-2.15.63-2.14,2.7,0,2.23-.04,2.86,2.13,2.85l12.75.26c.8,1.46-1.59,1.19-2.59,1.18-2.25,0-11.34-.15-12.3.09l.03,2.37c2.28.34,7.28.05,9.86.05,5.18,0,7.13.8,7.13-2.85,0-2.27.13-3.16-2.14-3.17-2.32,0-11.98.19-12.86-.14"/>
      <path class="cls-1" d="M56.38,42.2c.33,2.49,2.58,1.82,4.8,1.82h6.71c2.65,0,4.77.58,5.33-1.3.24-.8.18-5.26.13-6.37-.05-1.19-.4-1.75-1.51-1.83h-9.98c-2.9,0-5.09-.51-5.45,1.2-.16.73-.14,5.66-.03,6.48M58.59,41.53c-.34-.84-.49-3.67-.07-4.74.61-.24,11.95-.46,12.58.14.45.38.3.2.34.96.02.35-.02.85-.02,1.22,0,1.64.2,2.3-.93,2.49h-2.41c-2.26,0-7.94.13-9.48-.06Z"/>
      <path class="cls-1" d="M77.04,40.06h13.07s.07,3.96.07,3.96h1.91c.22-1.61.08-4.06.08-5.77,0-2.16.42-3.69-2.08-3.69h-12.73c-1.72,0-2.23.41-2.23,2.14,0,2.22-.11,5.38.07,7.32h1.81s.03-3.96.03-3.96ZM77.07,38c-.13-1.64.68-1.27,2.18-1.26,2.13.01,9.71-.14,10.74.09l.09,1.21-13.01-.03Z"/>
      <path class="cls-1" d="M1.92,44c.25-1.96-.07-5.07.07-6.45.09-.86.33-.9,1.21-.9,16.34,0,10.85-1.34,11.95,7.37l1.86-.06.02-6.75c0-2.08-.16-2.7-2.3-2.69-4.32,0-10.65-.13-14.73.03l.02,9.47h1.9Z"/>
      <path class="cls-1" d="M18.92,34.54c.66.89,4.53,3.58,5.22,4.56l-2.72,2.4c-.5.4-.87.82-1.37,1.21-.43.33-1.04.61-1.13,1.32,3.46,0,2.57.19,3.28-.53l1.89-1.73c.43-.44.84-.68,1.29-1.12.74-.7.43-.6,1.72-.61,2.28,0,2.09.49,3.26,1.65.7.69,1.66,1.49,2.25,2.32h3.06c-.07-.64-1.81-2.02-2.47-2.58-.49-.41-.87-.81-1.36-1.22-.52-.44-.98-.55-1.35-1.36.46-.24,4.93-3.89,5.18-4.33-3.28,0-2.78-.37-4.62,1.32-2.27,2.09-1.52,2.2-3.79,2.2-1.75,0-1.85-.41-3.79-2.19-1.73-1.59-1.36-1.48-4.58-1.31"/>
      <polygon class="cls-1" points="93.94 36.65 101.39 36.71 101.49 44.03 103.34 44.02 103.36 36.66 110.92 36.64 110.82 34.56 93.93 34.58 93.94 36.65"/>
    </g>
  </g>
</svg>