<?xml version="1.0" encoding="UTF-8"?>
<svg id="Layer_2" data-name="Layer 2" xmlns="http://www.w3.org/2000/svg" viewBox="0 0 130.21 57.08">
  <defs>
    <style>
      .cls-1 {
        fill-rule: evenodd;
        stroke-width: 0px;
      }

      .cls-1, .cls-2 {
        fill: #fff;
      }

      .cls-2 {
        font-family: ArialMT, Arial;
        font-size: 5.97px;
      }
    </style>
  </defs>
  <g id="Layer_1-2" data-name="Layer 1">
    <g>
      <path class="cls-1" d="M54.95.33c-6.45.54-29.31,3.94-27.41,13.97.35,1.86,1.41,2.73,2.42,3.7,10.33,9.98,42.5,10.43,58.27,3.62,20.63-8.91-.22-24.04-33.28-21.29M73.18,2.39c-5.41,1.38-7.91,1-10.56,5.02-2.04,3.1-3.4,6.78-5.34,10.08-2.34,3.98-4.48,5.12-10.52,4.82-13.55-.68-18.41-9.16-12.57-14.16C42.83.77,62.49,1.17,73.18,2.39ZM52.65,24.09c.08-.05.19-.11.25-.14l.49-.25c8.83-4.11,7.76-5.94,14.24-14.99,2.26-3.15,4.79-4.76,10.29-4.67,13.35.22,22.82,12.82,1.84,18.48-7.78,2.1-18.9,2.85-27.11,1.57Z"/>
      <path class="cls-1" d="M101.68,38.8c.77-.6,1.57-.49,2.75-.48h8.35s.03-2.53.03-2.53c-2.46-.08-12.13-.35-13.9.19l.08,10.74h13.81s-.01-2.51-.01-2.51l-11.11-.38c-.16-2.56,1.33-1.54,3.63-1.75l6.71.19v-2c-1.69-.26-3.49-.12-5.22-.12-.41,0-4.68.15-4.86-.24-.05-.11-.18-.06-.26-.11v-1.01Z"/>
      <path class="cls-1" d="M80.14,40.29c-1.83-.31-4-.14-5.88-.13-5.45.01-4.46.57-4.46-1.81l11.1-.04.02-2.5c-3.02-.06-11.97-.34-13.89.16l.08,10.76h13.8s0-2.5,0-2.5c-1.98-.08-4-.04-5.98-.04-.93,0-4.92.6-5.13-.69.19-1.53-.11-1.2,2.07-1.2l8.26-.04v-1.97Z"/>
      <path class="cls-1" d="M13.55,38.21l-.04-2.39c-2.74-.17-10.94-.51-13.01.33-.6,1.3-.67,4.08-.19,5.49,1.94,1.69,8.21.23,11.09.95v1.63s-11.31.02-11.31.02l.1,2.51c2.43-.04,4.88-.01,7.32-.01,2.41,0,5.13.61,6.18-1.15.49-1.71.26-3.86-.39-5.16-2.28-.59-8-.3-10.89-.31l.12-1.81,11.02-.11Z"/>
      <path class="cls-1" d="M128.91,43.83c.49-1.6,1.35.38,1.21-5.05-.07-2.65-.65-3.02-3.21-3.02-2.98,0-8.98-.31-11.6.19l.09,10.75,2.62-.07.06-3.17,7.49.08c.78,1.02,1.4,2.37,2.04,3.2h2.6c-.09-1.06-.77-2.07-1.29-2.91M118,38.34h9.31s0,2.64,0,2.64h-9.32s.01-2.64.01-2.64Z"/>
      <path class="cls-1" d="M52.57,43.55c1.73-.41,7.32-.32,9.2-.09l.19,3.28h2.46c.37-2.08.31-8.65-.15-10.41-1.82-.96-11.48-.86-13.91-.24-.82,1.92-.88,7.96-.43,10.63l2.55.02.09-3.19ZM52.63,38.26h9.15s-.12,2.72-.12,2.72l-9.07-.06.03-2.66Z"/>
      <path class="cls-1" d="M18.97,38.46l11.13-.02-.03-2.66c-14.71-.17-13.91-1.09-13.88,4.7,0,1.92-.15,4.16.37,5.75,2.24,1.13,10.12.55,13.47.51l.08-2.66-11.13-.05v-5.56Z"/>
      <path class="cls-1" d="M35.46,42.55l9.08.17.27,4.04,2.54-.1-.02-10.83-2.7-.05-.06,3.86c-1.81.56-7.04.28-9.19.19l-.06-4.05h-2.73s.17,10.96.17,10.96l2.54-.02.16-4.17Z"/>
      <path class="cls-1" d="M86.19,38.8c.37-.2-.07-.1.84-.28l4.67-.08c1.87,0,3.76.1,5.66-.07l-.04-2.6-13.9.18.1,10.77,2.63-.1.09-3.77,9.84-.03v-2.34s-9.86-.33-9.86-.33l-.02-1.34Z"/>
      <text class="cls-2" transform="translate(43.75 55.14)"><tspan x="0" y="0">Y</tspan></text>
      <text class="cls-2" transform="translate(50.74 55.14)"><tspan x="0" y="0">A</tspan></text>
      <text class="cls-2" transform="translate(58.18 55.14)"><tspan x="0" y="0">C</tspan></text>
      <text class="cls-2" transform="translate(65.94 55.14)"><tspan x="0" y="0">H</tspan></text>
      <text class="cls-2" transform="translate(73.71 55.14)"><tspan x="0" y="0">T</tspan></text>
      <text class="cls-2" transform="translate(80.81 55.14)"><tspan x="0" y="0">S</tspan></text>
    </g>
  </g>
</svg>