<svg width="125" height="34" viewBox="0 0 125 34" fill="none" xmlns="http://www.w3.org/2000/svg">
<path d="M8.5111 30.2503C9.50647 31.225 11.1037 31.225 12.0875 30.2503C13.0829 29.287 13.0829 27.7116 12.0875 26.7483L4.42546 19.2456C3.43009 18.271 1.83286 18.271 0.849067 19.2456C-0.146304 20.2203 -0.146304 21.7843 0.849067 22.7477L5.3861 27.179L8.5111 30.2503Z" fill="url(#paint0_radial_30_149)"/>
<path d="M12.0992 11.7203C11.1038 10.7456 9.50658 10.7456 8.52278 11.7203L0.849169 19.2229C-0.123053 20.1749 -0.180923 21.6596 0.745003 22.6229L0.779725 22.6683L0.826021 22.7136L0.837595 22.7249L0.849169 22.7363L5.37463 27.1563C2.94408 24.7763 6.20797 20.9683 6.20797 20.9683L12.0876 15.2109C13.083 14.2589 13.083 12.6836 12.0992 11.7203Z" fill="url(#paint1_linear_30_149)"/>
<path d="M116.463 12.7515C115.467 11.7768 113.87 11.7768 112.886 12.7515C111.891 13.7262 111.891 15.2902 112.886 16.2535L120.548 23.7562C121.544 24.7308 123.141 24.7308 124.125 23.7562C125.12 22.7815 125.12 21.2175 124.125 20.2542L119.588 15.8228L116.463 12.7515Z" fill="url(#paint2_linear_30_149)"/>
<path d="M112.886 31.2817C113.882 32.2564 115.479 32.2564 116.463 31.2817L124.125 23.779C125.097 22.827 125.155 21.3424 124.229 20.379L124.194 20.3337L124.148 20.2884L124.136 20.277L124.125 20.2657L119.599 15.8457C122.03 18.2257 118.766 22.0337 118.766 22.0337L112.886 27.791C111.891 28.743 111.891 30.3184 112.886 31.2817Z" fill="url(#paint3_linear_30_149)"/>
<path d="M18.0714 29.9671C17.7936 30.8171 16.8677 31.2818 15.9996 31.0098C15.1316 30.7378 14.657 29.8311 14.9348 28.9811L20.3978 12.6384C20.6756 11.7884 21.6015 11.3238 22.4695 11.5958C23.3376 11.8678 23.8121 12.7744 23.5343 13.6244L18.0714 29.9671Z" fill="url(#paint4_linear_30_149)"/>
<path d="M42.504 13.4997C42.8397 13.4997 43.1059 13.8057 43.0364 14.1231L40.9647 25.4677C40.9184 25.7057 40.8026 25.9097 40.6406 26.0797C40.4786 26.2497 40.2586 26.3631 40.0272 26.4084C39.7841 26.4537 39.5411 26.4197 39.3211 26.3291C39.1012 26.2384 38.9276 26.0911 38.8003 25.8871L34.46 18.9284L30.1198 25.8984C30.0156 26.0684 29.8767 26.2044 29.6915 26.2951C29.4948 26.3971 29.2864 26.4424 29.0549 26.4311C28.8235 26.4197 28.6036 26.3404 28.4299 26.2157C28.1753 26.0344 28.0133 25.7851 27.967 25.4677L25.9184 14.3044C25.8374 13.8851 26.173 13.4884 26.6128 13.4884H27.8165C28.0249 13.4884 28.1985 13.6357 28.2332 13.8284L29.7378 21.9204L33.4647 16.0951C33.5688 15.9251 33.7077 15.7891 33.8929 15.6984C34.0781 15.6077 34.2633 15.5624 34.4716 15.5624C34.6799 15.5624 34.8651 15.6077 35.0503 15.6984C35.2239 15.7891 35.3744 15.9251 35.4901 16.0951L39.2054 21.9204L40.6869 13.9417C40.7332 13.6811 40.9762 13.4771 41.254 13.4771L42.504 13.4997Z" fill="white"/>
<path d="M47.7707 26.2725H47.0299C46.5785 26.2725 46.2197 25.9212 46.2197 25.4792V14.2932C46.2197 13.8512 46.5785 13.4998 47.0299 13.4998H47.7707C48.222 13.4998 48.5808 13.8512 48.5808 14.2932V25.4792C48.5924 25.9212 48.222 26.2725 47.7707 26.2725ZM57.8864 26.2725H56.8679C56.648 26.2725 56.4396 26.1932 56.2892 26.0345L51.4396 21.2745C51.2892 21.1272 51.0808 21.0365 50.8609 21.0365H50.3401C49.8887 21.0365 49.5299 20.6852 49.5299 20.2432V19.4952C49.5299 19.0532 49.8887 18.7018 50.3401 18.7018H50.8609C51.0808 18.7018 51.2892 18.6225 51.4396 18.4638L56.2892 13.7038C56.4396 13.5565 56.648 13.4658 56.8679 13.4658H57.8864C58.6156 13.4658 58.9744 14.3385 58.4535 14.8258L53.7776 19.2798C53.4535 19.5972 53.4535 20.1072 53.7776 20.4245L58.4535 24.8785C58.9744 25.4112 58.6156 26.2725 57.8864 26.2725Z" fill="white"/>
<path d="M75.6757 21.1043C75.6757 21.8863 75.5368 22.6003 75.2706 23.2576C74.9928 23.9149 74.6224 24.4703 74.1363 24.9463C73.6502 25.4223 73.0715 25.7963 72.4118 26.0569C71.7521 26.3176 71.0229 26.4536 70.2359 26.4536H67.0299C66.2428 26.4536 65.5252 26.3176 64.8539 26.0569C64.1826 25.7963 63.6155 25.4223 63.1294 24.9463C62.6433 24.4703 62.2613 23.9036 61.9836 23.2576C61.7058 22.6003 61.5669 21.8863 61.5669 21.1043V18.6676C61.5669 17.8969 61.7058 17.1829 61.9836 16.5256C62.2613 15.8683 62.6433 15.3016 63.1294 14.8369C63.6155 14.3609 64.1942 13.9983 64.8539 13.7263C65.5252 13.4543 66.2428 13.3296 67.0299 13.3296H70.2359C71.0229 13.3296 71.7405 13.4656 72.4118 13.7263C73.0715 13.9983 73.6502 14.3609 74.1363 14.8369C74.6224 15.3129 75.0044 15.8796 75.2706 16.5256C75.5484 17.1829 75.6757 17.8969 75.6757 18.6676V21.1043ZM73.3146 18.6676C73.3146 18.2143 73.2451 17.7949 73.0947 17.4209C72.9442 17.0469 72.7359 16.7296 72.4697 16.4689C72.2035 16.2083 71.8794 16.0043 71.4974 15.8569C71.1155 15.7096 70.6988 15.6416 70.2474 15.6416H67.0414C66.5785 15.6416 66.1618 15.7096 65.7799 15.8569C65.3979 16.0043 65.0738 16.2083 64.7961 16.4689C64.5183 16.7296 64.31 17.0469 64.1595 17.4209C64.009 17.7949 63.9396 18.2029 63.9396 18.6676V21.1043C63.9396 21.5576 64.009 21.9769 64.1595 22.3509C64.31 22.7249 64.5183 23.0423 64.7961 23.3029C65.0738 23.5636 65.3979 23.7676 65.7799 23.9149C66.1618 24.0623 66.5785 24.1303 67.0414 24.1303H70.2243C70.6873 24.1303 71.1039 24.0623 71.4859 23.9149C71.8678 23.7676 72.1919 23.5636 72.4697 23.3029C72.7475 23.0423 72.9558 22.7249 73.1062 22.3509C73.2567 21.9769 73.3262 21.5689 73.3262 21.1043L73.3146 18.6676Z" fill="white"/>
<path d="M92.0643 20.923C92.0643 21.705 91.9255 22.419 91.6477 23.0764C91.3699 23.7337 90.988 24.2891 90.5018 24.7651C90.0157 25.2411 89.437 25.6037 88.7773 25.8757C88.106 26.1477 87.3884 26.2724 86.6014 26.2724H80.2125C80.0389 26.2724 79.8884 26.2384 79.738 26.1817C79.5991 26.1251 79.4718 26.0457 79.356 25.9324C79.2518 25.8304 79.1708 25.7057 79.1014 25.5584C79.0435 25.4224 79.0088 25.2637 79.0088 25.0937V14.6444C79.0088 14.4857 79.0435 14.3271 79.1014 14.1911C79.1593 14.0551 79.2403 13.9191 79.356 13.8171C79.4602 13.7151 79.5875 13.6244 79.738 13.5677C79.8768 13.5111 80.0389 13.4771 80.2125 13.4771H86.6014C87.3884 13.4771 88.106 13.6131 88.7773 13.8737C89.4486 14.1457 90.0157 14.5084 90.5018 14.9844C90.988 15.4604 91.3699 16.0271 91.6477 16.6731C91.9255 17.3304 92.0643 18.0444 92.0643 18.8151V20.923ZM89.7032 18.8491C89.7032 18.3957 89.6338 17.9877 89.4833 17.6137C89.3329 17.2397 89.1245 16.9224 88.8468 16.6504C88.569 16.3897 88.2449 16.1857 87.863 16.0384C87.481 15.8911 87.0643 15.8231 86.6014 15.8231H81.3815V23.9717H86.6014C87.0643 23.9717 87.481 23.9037 87.863 23.7564C88.2449 23.609 88.569 23.4051 88.8468 23.1444C89.1245 22.8837 89.3329 22.5664 89.4833 22.1924C89.6338 21.8184 89.7032 21.4104 89.7032 20.9457V18.8491Z" fill="white"/>
<path d="M107.203 25.7283C107.203 26.0343 106.96 26.2723 106.648 26.2723H98.6617C98.3377 26.2723 97.9789 26.2156 97.5854 26.1023C97.1918 25.9889 96.833 25.8076 96.509 25.547C96.1733 25.2863 95.9071 24.9576 95.6872 24.5383C95.4673 24.1189 95.3516 23.6203 95.3516 23.0196V14.6556C95.3516 14.4969 95.3863 14.3383 95.4442 14.2023C95.502 14.0663 95.583 13.9303 95.6988 13.8283C95.803 13.7263 95.9303 13.6356 96.0807 13.5789C96.2196 13.5223 96.3817 13.4883 96.5553 13.4883H106.648C106.96 13.4883 107.203 13.7263 107.203 14.0323V15.2563C107.203 15.5623 106.96 15.8003 106.648 15.8003H98.2798C97.9673 15.8003 97.7242 16.0383 97.7242 16.3443V23.0083C97.7242 23.3143 97.8053 23.5409 97.9673 23.6996C98.1293 23.8583 98.3724 23.9376 98.6849 23.9376H106.648C106.96 23.9376 107.203 24.1756 107.203 24.4816V25.7283ZM105.583 21.0476H99.2289C98.9164 21.0476 98.6733 20.8096 98.6733 20.5036V19.257C98.6733 18.951 98.9164 18.7129 99.2289 18.7129H105.583C105.896 18.7129 106.139 18.951 106.139 19.257V20.5036C106.139 20.8096 105.896 21.0476 105.583 21.0476Z" fill="white"/>
<path d="M27.3771 32.9249V31.9162L26.8678 32.7436H26.6942L26.1965 31.9389V32.9249H25.8262V31.2476H26.1502L26.7868 32.2902L27.4234 31.2476H27.7475V32.9249H27.3771Z" fill="white"/>
<path d="M31.4626 32.5622H30.664L30.5135 32.9249H30.1084L30.8723 31.2476H31.2658L32.0297 32.9249H31.613L31.4626 32.5622ZM31.3352 32.2789L31.069 31.6329L30.8028 32.2789H31.3352Z" fill="white"/>
<path d="M35.4789 32.9249L35.1433 32.4602H35.1201H34.7729V32.9249H34.3794V31.2476H35.1201C35.5831 31.2476 35.8609 31.4856 35.8609 31.8596C35.8609 32.1089 35.7336 32.2902 35.5137 32.3922L35.8956 32.9362L35.4789 32.9249ZM35.1086 31.5649H34.7845V32.1542H35.1086C35.3516 32.1542 35.4789 32.0409 35.4789 31.8596C35.4789 31.6782 35.3516 31.5649 35.1086 31.5649Z" fill="white"/>
<path d="M38.9976 32.2676L38.7661 32.5056V32.9249H38.3726V31.2476H38.7661V32.0296L39.53 31.2476H39.9698L39.2522 31.9956L40.0045 32.9249H39.5415L38.9976 32.2676Z" fill="white"/>
<path d="M43.6967 32.6188V32.9361H42.3657V31.2588H43.662V31.5761H42.7592V31.9388H43.5579V32.2448H42.7592V32.6301L43.6967 32.6188Z" fill="white"/>
<path d="M46.544 31.5649H46V31.2476H47.4931V31.5649H46.9491V32.9249H46.5556V31.5649H46.544Z" fill="white"/>
<path d="M49.877 31.2476H50.2705V32.9249H49.877V31.2476Z" fill="white"/>
<path d="M54.4374 31.2476V32.9249H54.1133L53.2568 31.9049V32.9249H52.8633V31.2476H53.1874L54.0438 32.2676V31.2476H54.4374Z" fill="white"/>
<path d="M58.1755 32.0634H58.5343V32.7434C58.3491 32.8794 58.0829 32.9587 57.8398 32.9587C57.2959 32.9587 56.9023 32.596 56.9023 32.086C56.9023 31.576 57.2959 31.2134 57.8514 31.2134C58.1523 31.2134 58.407 31.3154 58.569 31.508L58.3144 31.7347C58.1871 31.5987 58.0482 31.542 57.8746 31.542C57.5389 31.542 57.319 31.7574 57.319 32.0747C57.319 32.392 57.5505 32.6074 57.8746 32.6074C57.9787 32.6074 58.0829 32.5847 58.1871 32.5394L58.1755 32.0634Z" fill="white"/>
<path d="M65.2939 32.6188V32.9361H63.9629V31.2588H65.2592V31.5761H64.3564V31.9388H65.155V32.2448H64.3564V32.6301L65.2939 32.6188Z" fill="white"/>
<path d="M71.0113 31.5649H70.4673V31.2476H71.9603V31.5649H71.4164V32.9249H71.0228V31.5649H71.0113Z" fill="white"/>
<path d="M75.6875 32.6188V32.9361H74.3564V31.2588H75.6527V31.5761H74.75V31.9388H75.5486V32.2448H74.75V32.6301L75.6875 32.6188Z" fill="white"/>
<path d="M78.0601 32.086C78.0601 31.576 78.4536 31.2134 78.986 31.2134C79.2869 31.2134 79.53 31.3154 79.692 31.508L79.4374 31.7347C79.3216 31.5987 79.1827 31.542 79.0091 31.542C78.6851 31.542 78.4652 31.7687 78.4652 32.0747C78.4652 32.392 78.6966 32.6074 79.0091 32.6074C79.1827 32.6074 79.3216 32.5394 79.4374 32.4034L79.692 32.63C79.53 32.8227 79.2869 32.936 78.986 32.936C78.4652 32.9587 78.0601 32.596 78.0601 32.086Z" fill="white"/>
<path d="M83.7196 31.2476V32.9249H83.3955L82.539 31.9049V32.9249H82.1455V31.2476H82.4696L83.3261 32.2676V31.2476H83.7196Z" fill="white"/>
<path d="M86.1968 32.086C86.1968 31.5874 86.5903 31.2134 87.1343 31.2134C87.6783 31.2134 88.0718 31.576 88.0718 32.086C88.0718 32.5847 87.6667 32.9587 87.1343 32.9587C86.6019 32.9587 86.1968 32.5847 86.1968 32.086ZM87.6783 32.086C87.6783 31.7687 87.4468 31.5534 87.1459 31.5534C86.8334 31.5534 86.6134 31.7687 86.6134 32.086C86.6134 32.4034 86.8449 32.6187 87.1459 32.6187C87.4468 32.63 87.6783 32.4034 87.6783 32.086Z" fill="white"/>
<path d="M90.5482 31.2476H90.9417V32.6076H91.7982V32.9249H90.5366V31.2476H90.5482Z" fill="white"/>
<path d="M94.0786 32.086C94.0786 31.5874 94.4721 31.2134 95.0161 31.2134C95.5601 31.2134 95.9536 31.576 95.9536 32.086C95.9536 32.5847 95.5485 32.9587 95.0161 32.9587C94.4721 32.9587 94.0786 32.5847 94.0786 32.086ZM95.5485 32.086C95.5485 31.7687 95.317 31.5534 95.0161 31.5534C94.7036 31.5534 94.4837 31.7687 94.4837 32.086C94.4837 32.4034 94.7152 32.6187 95.0161 32.6187C95.317 32.63 95.5485 32.4034 95.5485 32.086Z" fill="white"/>
<path d="M99.5876 32.0634H99.9464V32.7434C99.7612 32.8794 99.495 32.9587 99.252 32.9587C98.708 32.9587 98.3145 32.596 98.3145 32.086C98.3145 31.576 98.708 31.2134 99.2635 31.2134C99.5645 31.2134 99.8191 31.3154 99.9811 31.508L99.7265 31.7347C99.5992 31.5987 99.4603 31.542 99.2867 31.542C98.951 31.542 98.7311 31.7574 98.7311 32.0747C98.7311 32.392 98.9626 32.6074 99.2867 32.6074C99.3908 32.6074 99.495 32.5847 99.5992 32.5394L99.5876 32.0634Z" fill="white"/>
<path d="M102.504 31.2476H102.898V32.9249H102.504V31.2476Z" fill="white"/>
<path d="M106.613 32.5622H105.815L105.664 32.9249H105.259L106.023 31.2476H106.417L107.181 32.9249H106.764L106.613 32.5622ZM106.486 32.2789L106.22 31.6329L105.954 32.2789H106.486Z" fill="white"/>
<path d="M8.03662 7.0623V1.1123H10.5945C11.5667 1.1123 12.3653 1.38431 12.9672 1.93964C13.569 2.48364 13.87 3.20897 13.87 4.09297C13.87 4.97697 13.569 5.69097 12.9672 6.24631C12.3653 6.79031 11.5783 7.07364 10.5945 7.07364L8.03662 7.0623ZM8.90468 6.32564H10.5482C11.2889 6.32564 11.8908 6.12164 12.3422 5.71364C12.7936 5.30564 13.0135 4.76164 13.0135 4.09297C13.0135 3.42431 12.7936 2.8803 12.3422 2.4723C11.8908 2.0643 11.3005 1.86031 10.5482 1.86031H8.90468V6.32564Z" fill="#F6F6F6"/>
<path d="M21.6592 4.84091C21.6592 4.89758 21.6476 4.98824 21.636 5.09024H17.9092C17.9555 5.48691 18.1406 5.80424 18.4416 6.04224C18.7425 6.28024 19.1244 6.40491 19.5758 6.40491C20.1198 6.40491 20.5712 6.22358 20.9068 5.86091L21.3698 6.38224C20.9416 6.86958 20.3397 7.10758 19.5527 7.10758C18.8235 7.10758 18.2217 6.89224 17.7703 6.46158C17.3189 6.03091 17.0874 5.47558 17.0874 4.80691C17.0874 4.14958 17.3073 3.59424 17.7471 3.16358C18.1869 2.73291 18.7309 2.51758 19.4022 2.51758C20.0735 2.51758 20.6059 2.73291 21.0342 3.16358C21.4393 3.58291 21.6592 4.14958 21.6592 4.84091ZM20.386 3.57158C20.1198 3.33358 19.7842 3.20891 19.3906 3.20891C18.9971 3.20891 18.6615 3.33358 18.3953 3.56024C18.1291 3.79824 17.967 4.10424 17.9207 4.48958H20.8721C20.8143 4.11558 20.6522 3.80958 20.386 3.57158Z" fill="#F6F6F6"/>
<path d="M26.5437 7.10768C26.1733 7.10768 25.8029 7.06235 25.4557 6.96035C25.1085 6.85835 24.8423 6.73368 24.6455 6.58635L24.9927 5.94035C25.4325 6.25768 25.9765 6.40501 26.6015 6.40501C27.3307 6.40501 27.7011 6.20101 27.7011 5.79301C27.7011 5.63435 27.6316 5.50968 27.4812 5.41901C27.3423 5.32835 27.1571 5.27168 26.9487 5.23768C26.7404 5.20368 26.4974 5.16968 26.2543 5.11301C26.0112 5.05635 25.7682 4.99968 25.5599 4.93168C25.34 4.86368 25.1663 4.72768 25.0275 4.54635C24.8886 4.36501 24.8075 4.12701 24.8075 3.85501C24.8075 3.44701 24.9812 3.11835 25.3284 2.88035C25.6756 2.63101 26.1386 2.50635 26.7288 2.50635C27.4117 2.50635 27.9788 2.64235 28.4071 2.91435L28.0483 3.56035C27.6779 3.32235 27.2265 3.20901 26.7173 3.20901C26.37 3.20901 26.0923 3.26568 25.9071 3.37901C25.7219 3.49235 25.6293 3.63968 25.6293 3.83235C25.6293 4.02501 25.7335 4.17235 25.9302 4.27435C26.127 4.37635 26.37 4.44435 26.6594 4.48968C26.9487 4.53501 27.2265 4.58035 27.5159 4.64835C27.8052 4.70501 28.0483 4.82968 28.245 5.02235C28.4418 5.21501 28.546 5.46435 28.546 5.79301C28.546 6.20101 28.3724 6.52968 28.0136 6.76768C27.6432 6.99435 27.1571 7.10768 26.5437 7.10768Z" fill="#F6F6F6"/>
<path d="M36.1499 4.84091C36.1499 4.89758 36.1383 4.98824 36.1267 5.09024H32.3999C32.4462 5.48691 32.6314 5.80424 32.9323 6.04224C33.2332 6.28024 33.6152 6.40491 34.0666 6.40491C34.6105 6.40491 35.0619 6.22358 35.3976 5.86091L35.8605 6.38224C35.4323 6.86958 34.8304 7.10758 34.0434 7.10758C33.3142 7.10758 32.7124 6.89224 32.261 6.46158C31.8096 6.03091 31.5781 5.47558 31.5781 4.80691C31.5781 4.14958 31.798 3.59424 32.2378 3.16358C32.6777 2.73291 33.2216 2.51758 33.8929 2.51758C34.5527 2.51758 35.0966 2.73291 35.5249 3.16358C35.9416 3.58291 36.1499 4.14958 36.1499 4.84091ZM34.8767 3.57158C34.6105 3.33358 34.2749 3.20891 33.8814 3.20891C33.4878 3.20891 33.1522 3.33358 32.886 3.56024C32.6198 3.79824 32.4578 4.10424 32.4115 4.48958H35.3513C35.305 4.11558 35.1545 3.80958 34.8767 3.57158Z" fill="#F6F6F6"/>
<path d="M42.1803 2.51758C42.759 2.51758 43.2335 2.68758 43.5692 3.01624C43.9164 3.34491 44.09 3.83224 44.09 4.46691V7.06224H43.2567V4.56891C43.2567 4.13824 43.1525 3.79824 42.9326 3.58291C42.7127 3.35624 42.4117 3.25424 42.0182 3.25424C41.5668 3.25424 41.208 3.37891 40.9534 3.63958C40.6988 3.90024 40.5599 4.26291 40.5599 4.75024V7.07358H39.7266V2.57424H40.5252V3.25424C40.8724 2.75558 41.428 2.51758 42.1803 2.51758Z" fill="#F6F6F6"/>
<path d="M51.3003 2.56299H52.1105L50.0966 7.06232H49.2517L47.2378 2.56299H48.1058L49.6799 6.16699L51.3003 2.56299Z" fill="#F6F6F6"/>
<path d="M57.2959 7.10758C56.6014 7.10758 56.0343 6.89224 55.5829 6.46158C55.1315 6.03091 54.9116 5.47558 54.9116 4.80691C54.9116 4.13824 55.1431 3.59424 55.5829 3.16358C56.0343 2.73291 56.6014 2.51758 57.2959 2.51758C57.9903 2.51758 58.5575 2.73291 59.0088 3.16358C59.4602 3.59424 59.6801 4.13824 59.6801 4.80691C59.6801 5.47558 59.4487 6.03091 59.0088 6.46158C58.569 6.89224 57.9788 7.10758 57.2959 7.10758ZM57.2959 6.39358C57.7357 6.39358 58.1061 6.24624 58.3954 5.95158C58.6848 5.65691 58.8352 5.27158 58.8352 4.79558C58.8352 4.31958 58.6963 3.93424 58.407 3.65091C58.1176 3.36758 57.7473 3.22024 57.2959 3.22024C56.8445 3.22024 56.4741 3.36758 56.1848 3.65091C55.8954 3.94558 55.745 4.31958 55.745 4.79558C55.745 5.27158 55.8954 5.65691 56.1848 5.95158C56.4625 6.25758 56.8445 6.39358 57.2959 6.39358Z" fill="#F6F6F6"/>
<path d="M63.2451 7.06207V0.760742H64.0785V7.06207H63.2451Z" fill="#F6F6F6"/>
<path d="M71.3467 2.56299H72.1569L70.143 7.06232H69.2981L67.2842 2.56299H68.1522L69.7263 6.16699L71.3467 2.56299Z" fill="#F6F6F6"/>
<path d="M76.1734 1.53156C76.0692 1.63356 75.9303 1.69023 75.7683 1.69023C75.6063 1.69023 75.4674 1.6449 75.3632 1.5429C75.259 1.4409 75.2012 1.31623 75.2012 1.1689C75.2012 1.02156 75.259 0.896896 75.3632 0.794896C75.4674 0.692896 75.6063 0.63623 75.7683 0.63623C75.9303 0.63623 76.0692 0.681562 76.1734 0.783562C76.2776 0.885562 76.3354 1.01023 76.3354 1.15756C76.3354 1.3049 76.2891 1.42956 76.1734 1.53156ZM75.3632 7.06223V2.5629H76.1965V7.06223H75.3632Z" fill="#F6F6F6"/>
<path d="M83.7081 0.760742H84.5415V7.06207H83.7429V6.34807C83.3725 6.85807 82.8169 7.11874 82.0993 7.11874C81.428 7.11874 80.8609 6.90341 80.4327 6.48408C80.0044 6.06474 79.7729 5.50941 79.7729 4.81807C79.7729 4.13807 79.9929 3.58274 80.4327 3.16341C80.8725 2.74407 81.428 2.52874 82.0993 2.52874C82.7938 2.52874 83.3262 2.76674 83.7081 3.25408V0.760742ZM82.1688 6.39341C82.6086 6.39341 82.979 6.24607 83.2683 5.95141C83.5577 5.65674 83.7081 5.27141 83.7081 4.79541C83.7081 4.33074 83.5577 3.94541 83.2683 3.65074C82.979 3.35608 82.6086 3.20874 82.1688 3.20874C81.7174 3.20874 81.347 3.35607 81.0577 3.63941C80.7683 3.92274 80.6179 4.30808 80.6179 4.78408C80.6179 5.26008 80.7683 5.64541 81.0577 5.94007C81.347 6.25741 81.7174 6.39341 82.1688 6.39341Z" fill="#F6F6F6"/>
<path d="M90.5019 7.10758C89.8075 7.10758 89.2404 6.89224 88.789 6.46158C88.3376 6.03091 88.1177 5.47558 88.1177 4.80691C88.1177 4.13824 88.3492 3.59424 88.789 3.16358C89.2404 2.73291 89.8075 2.51758 90.5019 2.51758C91.1964 2.51758 91.7635 2.73291 92.2149 3.16358C92.6663 3.59424 92.8862 4.13824 92.8862 4.80691C92.8862 5.47558 92.6547 6.03091 92.2149 6.46158C91.7635 6.89224 91.1964 7.10758 90.5019 7.10758ZM90.5019 6.39358C90.9417 6.39358 91.3121 6.24624 91.6015 5.95158C91.8908 5.65691 92.0413 5.27158 92.0413 4.79558C92.0413 4.31958 91.9024 3.93424 91.613 3.65091C91.3237 3.36758 90.9533 3.22024 90.5019 3.22024C90.0505 3.22024 89.6802 3.36758 89.3908 3.65091C89.1015 3.93424 88.951 4.31958 88.951 4.79558C88.951 5.27158 89.1015 5.65691 89.3908 5.95158C89.6802 6.25758 90.0505 6.39358 90.5019 6.39358Z" fill="#F6F6F6"/>
<path d="M101.278 2.51758C101.949 2.51758 102.516 2.73291 102.944 3.15224C103.372 3.57158 103.604 4.12691 103.604 4.80691C103.604 5.49824 103.384 6.04224 102.944 6.47291C102.504 6.89224 101.949 7.10758 101.278 7.10758C100.583 7.10758 100.051 6.86958 99.6688 6.38224V8.70558H98.8354V2.55158H99.6341V3.26558C100.016 2.76691 100.56 2.51758 101.278 2.51758ZM101.208 6.39358C101.66 6.39358 102.03 6.24624 102.319 5.95158C102.609 5.65691 102.759 5.27158 102.759 4.79558C102.759 4.33091 102.609 3.94558 102.319 3.65091C102.03 3.35624 101.66 3.20891 101.208 3.20891C100.768 3.20891 100.398 3.35624 100.109 3.65091C99.8192 3.94558 99.6688 4.31958 99.6688 4.79558C99.6688 5.27158 99.8192 5.65691 100.109 5.95158C100.398 6.25758 100.768 6.39358 101.208 6.39358Z" fill="#F6F6F6"/>
<path d="M109.148 7.10758C108.453 7.10758 107.886 6.89224 107.435 6.46158C106.984 6.03091 106.764 5.47558 106.764 4.80691C106.764 4.13824 106.995 3.59424 107.435 3.16358C107.886 2.73291 108.453 2.51758 109.148 2.51758C109.842 2.51758 110.41 2.73291 110.861 3.16358C111.312 3.59424 111.532 4.13824 111.532 4.80691C111.532 5.47558 111.301 6.03091 110.861 6.46158C110.41 6.89224 109.831 7.10758 109.148 7.10758ZM109.148 6.39358C109.588 6.39358 109.958 6.24624 110.247 5.95158C110.537 5.65691 110.687 5.27158 110.687 4.79558C110.687 4.31958 110.548 3.93424 110.259 3.65091C109.97 3.36758 109.599 3.22024 109.148 3.22024C108.697 3.22024 108.326 3.36758 108.037 3.65091C107.747 3.94558 107.597 4.31958 107.597 4.79558C107.597 5.27158 107.747 5.65691 108.037 5.95158C108.326 6.25758 108.697 6.39358 109.148 6.39358Z" fill="#F6F6F6"/>
<path d="M115.907 3.31091C116.208 2.77824 116.764 2.51758 117.585 2.51758V3.31091C117.539 3.29958 117.47 3.29958 117.4 3.29958C116.949 3.29958 116.59 3.43558 116.335 3.69624C116.081 3.95691 115.953 4.33091 115.953 4.81824V7.06224H115.12V2.56291H115.919L115.907 3.31091Z" fill="#F6F6F6"/>
<defs>
<radialGradient id="paint0_radial_30_149" cx="0" cy="0" r="1" gradientUnits="userSpaceOnUse" gradientTransform="translate(0.574101 20.3646) scale(14.0771 13.7843)">
<stop offset="0.1667" stop-color="#4775B6"/>
<stop offset="0.3142" stop-color="#4977B7"/>
<stop offset="0.4614" stop-color="#4D7FB9"/>
<stop offset="0.6085" stop-color="#568DBB"/>
<stop offset="0.7556" stop-color="#64A0BB"/>
<stop offset="0.9013" stop-color="#78B7B7"/>
<stop offset="1" stop-color="#89C9B2"/>
</radialGradient>
<linearGradient id="paint1_linear_30_149" x1="2.71153" y1="19.0789" x2="20.5269" y2="19.0789" gradientUnits="userSpaceOnUse">
<stop stop-color="#89C9B2"/>
<stop offset="0.0987" stop-color="#78B7B7"/>
<stop offset="0.2444" stop-color="#64A0BB"/>
<stop offset="0.3915" stop-color="#568DBB"/>
<stop offset="0.5386" stop-color="#4D7FB9"/>
<stop offset="0.6858" stop-color="#4977B7"/>
<stop offset="0.8333" stop-color="#4775B6"/>
</linearGradient>
<linearGradient id="paint2_linear_30_149" x1="124.872" y1="18.264" x2="112.138" y2="18.264" gradientUnits="userSpaceOnUse">
<stop offset="0.00955605" stop-color="#8C1456"/>
<stop offset="0.1343" stop-color="#8F1B56"/>
<stop offset="0.3029" stop-color="#962A56"/>
<stop offset="0.4966" stop-color="#A33E56"/>
<stop offset="0.7091" stop-color="#B75B51"/>
<stop offset="0.9344" stop-color="#D2813B"/>
<stop offset="1" stop-color="#DB8E2E"/>
</linearGradient>
<linearGradient id="paint3_linear_30_149" x1="122.266" y1="23.9229" x2="104.451" y2="23.9229" gradientUnits="userSpaceOnUse">
<stop stop-color="#DB8E2E"/>
<stop offset="0.0656" stop-color="#D2813B"/>
<stop offset="0.2909" stop-color="#B75B51"/>
<stop offset="0.5034" stop-color="#A33E56"/>
<stop offset="0.6971" stop-color="#962A56"/>
<stop offset="0.8657" stop-color="#8F1B56"/>
<stop offset="0.9904" stop-color="#8C1456"/>
</linearGradient>
<linearGradient id="paint4_linear_30_149" x1="16.2222" y1="20.8464" x2="22.2487" y2="21.8082" gradientUnits="userSpaceOnUse">
<stop stop-color="#89C9B2"/>
<stop offset="0.0987" stop-color="#78B7B7"/>
<stop offset="0.2444" stop-color="#64A0BB"/>
<stop offset="0.3915" stop-color="#568DBB"/>
<stop offset="0.5386" stop-color="#4D7FB9"/>
<stop offset="0.6858" stop-color="#4977B7"/>
<stop offset="0.8333" stop-color="#4775B6"/>
</linearGradient>
</defs>
</svg>